<svg width="280" height="46" viewBox="0 0 280 46" fill="none" xmlns="http://www.w3.org/2000/svg">
<path fill-rule="evenodd" clip-rule="evenodd" d="M268.772 14.1788L268.772 15.753L270.386 15.753L272 15.753L272 14.1788L272 12.6046L270.386 12.6046L268.772 12.6046L268.772 14.1788ZM264.2 11.1616L264.2 9.58736L264.2 8.01312L265.746 8.01312L267.293 8.01312L267.293 9.58736L267.293 11.1616L265.746 11.1616L264.2 11.1616ZM259.493 9.58736L259.493 11.1616L261.106 11.1616L262.72 11.1616L262.72 9.58736L262.72 8.01312L261.106 8.01312L259.493 8.01312L259.493 9.58736ZM254.786 11.1616L254.786 9.58736L254.786 8.01312L256.399 8.01312L258.013 8.01312L258.013 9.58736L258.013 11.1616L256.399 11.1616L254.786 11.1616ZM240.799 9.58736L240.799 11.1616L242.413 11.1616L244.027 11.1616L244.027 9.58736L244.027 8.01312L242.413 8.01312L240.799 8.01312L240.799 9.58736ZM236.226 11.1616L236.226 9.58736L236.226 8.01312L237.773 8.01312L239.319 8.01312L239.319 9.58736L239.319 11.1616L237.773 11.1616L236.226 11.1616ZM231.519 9.58736L231.519 11.1616L233.133 11.1616L234.747 11.1616L234.747 9.58736L234.747 8.01312L233.133 8.01312L231.519 8.01312L231.519 9.58736ZM226.812 11.1616L226.812 9.58736L226.812 8.01312L228.426 8.01312L230.04 8.01312L230.04 9.58736L230.04 11.1616L228.426 11.1616L226.812 11.1616ZM222.239 9.58736L222.239 11.1616L223.853 11.1616L225.481 11.1616L225.44 9.6136L225.4 8.07871L223.826 8.03935L222.239 8L222.239 9.58736ZM208.253 11.1616L208.253 9.58736L208.253 8.01312L209.799 8.01312L211.346 8.01312L211.346 9.58736L211.346 11.1616L209.799 11.1616L208.253 11.1616ZM203.546 9.58736L203.546 11.1616L205.159 11.1616L206.773 11.1616L206.773 9.58736L206.773 8.01312L205.159 8.01312L203.546 8.01312L203.546 9.58736ZM198.839 11.1616L198.839 9.58736L198.839 8.01312L200.452 8.01312L202.066 8.01312L202.066 9.58736L202.066 11.1616L200.452 11.1616L198.839 11.1616ZM184.986 9.58736L184.986 11.1616L186.533 11.1616L188.08 11.1616L188.08 9.58736L188.08 8.01311L186.533 8.01311L184.986 8.01311L184.986 9.58736ZM180.279 11.1616L180.279 9.58736L180.279 8.01311L181.893 8.01311L183.507 8.01311L183.507 9.58736L183.507 11.1616L181.893 11.1616L180.279 11.1616ZM175.572 9.58736L175.572 11.1616L177.186 11.1616L178.8 11.1616L178.8 9.58736L178.8 8.01311L177.186 8.01311L175.572 8.01311L175.572 9.58736ZM171 11.1616L171 9.58736L171 8L172.587 8.03935L174.16 8.07871L174.2 9.6136L174.241 11.1616L172.613 11.1616L171 11.1616ZM161.72 9.58736L161.72 11.1616L163.267 11.1616L164.813 11.1616L164.813 9.58736L164.813 8.01311L163.267 8.01311L161.72 8.01311L161.72 9.58736ZM133.746 11.1616L133.746 9.58736L133.746 8.01311L135.293 8.01311L136.84 8.01311L136.84 9.58736L136.84 11.1616L135.293 11.1616L133.746 11.1616ZM129.039 9.58736L129.039 11.1616L130.653 11.1616L132.267 11.1616L132.267 9.58736L132.267 8.01311L130.653 8.01311L129.039 8.01311L129.039 9.58736ZM124.332 11.1616L124.332 9.58736L124.332 8.01311L125.946 8.01311L127.56 8.01311L127.56 9.58736L127.56 11.1616L125.946 11.1616L124.332 11.1616ZM105.773 9.58736L105.773 11.1616L107.319 11.1616L108.866 11.1616L108.866 9.58736L108.866 8.01311L107.319 8.01311L105.773 8.01311L105.773 9.58736ZM101.066 11.1616L101.066 9.58736L101.066 8.01311L102.68 8.01311L104.293 8.01311L104.293 9.58736L104.293 11.1616L102.68 11.1616L101.066 11.1616ZM96.3586 9.58736L96.3586 11.1616L97.9725 11.1616L99.5863 11.1616L99.5863 9.58736L99.5863 8.01311L97.9725 8.01311L96.3586 8.01311L96.3586 9.58736ZM91.786 11.1616L91.786 9.58736L91.786 7.99999L93.373 8.03935L94.9465 8.0787L94.9868 9.61359L95.0272 11.1616L93.3999 11.1616L91.786 11.1616ZM77.7993 9.58735L77.7993 11.1616L79.3459 11.1616L80.8926 11.1616L80.8926 9.58735L80.8926 8.01311L79.3459 8.01311L77.7993 8.01311L77.7993 9.58735ZM73.0922 11.1616L73.0922 9.58735L73.0922 8.01311L74.7061 8.01311L76.3199 8.01311L76.3199 9.58735L76.3199 11.1616L74.7061 11.1616L73.0922 11.1616ZM68.3851 9.58735L68.3851 11.1616L69.999 11.1616L71.6128 11.1616L71.6128 9.58735L71.6128 8.01311L69.999 8.01311L68.3851 8.01311L68.3851 9.58735ZM63.8126 11.1616L63.8126 9.58735L63.8126 7.99999L65.3996 8.03935L66.9731 8.0787L67.0135 9.61359L67.0538 11.1616L65.4265 11.1616L63.8126 11.1616ZM35.839 9.58735L35.839 11.1616L37.4529 11.1616L39.0667 11.1616L39.0667 9.58735L39.0667 8.01311L37.4529 8.01311L35.839 8.01311L35.839 9.58735ZM31.2664 11.1616L31.2664 9.58735L31.2664 8.01311L32.813 8.01311L34.3596 8.01311L34.3596 9.58735L34.3596 11.1616L32.813 11.1616L31.2664 11.1616ZM26.5593 9.58735L26.5593 11.1616L28.1732 11.1616L29.787 11.1616L29.787 9.58735L29.787 8.01311L28.1732 8.01311L26.5593 8.01311L26.5593 9.58735ZM21.8522 11.1616L21.8522 9.58735L21.8522 8.01311L23.4661 8.01311L25.0799 8.01311L25.0799 9.58735L25.0799 11.1616L23.4661 11.1616L21.8522 11.1616ZM17.2797 9.58735L17.2797 11.1616L18.8936 11.1616L20.5209 11.1616L20.4805 9.61359L20.4402 8.0787L18.8667 8.03934L17.2797 7.99999L17.2797 9.58735ZM8 9.58735L8 11.1616L9.61386 11.1616L11.2412 11.1616L11.2008 9.61359L11.1605 8.0787L9.58694 8.03934L8 7.99999L8 9.58735ZM8 14.1791L8 15.7664L9.58694 15.7271L11.1605 15.6877L11.2008 14.1397L11.2412 12.6048L9.61386 12.6048L8 12.6048L8 14.1791ZM26.5593 15.753L26.5593 14.1788L26.5593 12.6045L28.1732 12.6045L29.787 12.6045L29.787 14.1788L29.787 15.753L28.1732 15.753L26.5593 15.753ZM63.8126 14.1791L63.8126 15.7664L65.3996 15.7271L66.9731 15.6877L67.0135 14.1397L67.0538 12.6048L65.4265 12.6048L63.8126 12.6048L63.8126 14.1791ZM82.3719 15.753L82.3719 14.1788L82.3719 12.6046L83.9858 12.6046L85.5997 12.6046L85.5997 14.1788L85.5997 15.753L83.9858 15.753L82.3719 15.753ZM91.786 14.1791L91.786 15.7664L93.373 15.7271L94.9465 15.6877L94.9868 14.1397L95.0272 12.6048L93.3999 12.6048L91.786 12.6048L91.786 14.1791ZM110.345 15.753L110.345 14.1788L110.345 12.6046L111.959 12.6046L113.573 12.6046L113.573 14.1788L113.573 15.753L111.959 15.753L110.345 15.753ZM119.759 14.1791L119.759 15.7664L121.346 15.7271L122.92 15.6877L122.96 14.1397L123.001 12.6048L121.373 12.6048L119.759 12.6048L119.759 14.1791ZM138.319 15.753L138.319 14.1788L138.319 12.6046L139.933 12.6046L141.547 12.6046L141.547 14.1788L141.547 15.753L139.933 15.753L138.319 15.753ZM161.72 14.1788L161.72 15.753L163.267 15.753L164.813 15.753L164.813 14.1788L164.813 12.6046L163.267 12.6046L161.72 12.6046L161.72 14.1788ZM171 15.7665L171 14.1791L171 12.6048L172.613 12.6048L174.241 12.6048L174.2 14.1397L174.16 15.6877L172.587 15.7271L171 15.7665ZM194.266 14.1791L194.266 15.7665L195.853 15.7271L197.426 15.6877L197.467 14.1397L197.507 12.6048L195.88 12.6048L194.266 12.6048L194.266 14.1791ZM212.825 15.753L212.825 14.1788L212.825 12.6046L214.439 12.6046L216.053 12.6046L216.053 14.1788L216.053 15.753L214.439 15.753L212.825 15.753ZM231.519 14.1788L231.519 15.753L233.133 15.753L234.747 15.753L234.747 14.1788L234.747 12.6046L233.133 12.6046L231.519 12.6046L231.519 14.1788ZM250.213 15.7665L250.213 14.1791L250.213 12.6048L251.827 12.6048L253.454 12.6048L253.414 14.1397L253.373 15.6877L251.8 15.7271L250.213 15.7665ZM8 20.2132L8 18.6389L8 17.0516L9.58694 17.0909L11.1605 17.1303L11.2008 18.6652L11.2412 20.2132L9.61386 20.2132L8 20.2132ZM26.5593 18.6389L26.5593 20.2132L28.1732 20.2132L29.8005 20.2132L29.7601 18.6652L29.7198 17.1303L28.1463 17.0909L26.5593 17.0516L26.5593 18.6389ZM63.8126 20.2132L63.8126 18.6389L63.8126 17.0516L65.3996 17.0909L66.9731 17.1303L67.0135 18.6652L67.0538 20.2132L65.4265 20.2132L63.8126 20.2132ZM82.3719 18.6389L82.3719 20.2132L83.9858 20.2132L85.5997 20.2132L85.5997 18.6389L85.5997 17.0647L83.9858 17.0647L82.3719 17.0647L82.3719 18.6389ZM91.786 20.2132L91.786 18.6389L91.786 17.0516L93.373 17.0909L94.9465 17.1303L94.9868 18.6652L95.0272 20.2132L93.3999 20.2132L91.786 20.2132ZM110.345 18.6389L110.345 20.2132L111.959 20.2132L113.573 20.2132L113.573 18.6389L113.573 17.0647L111.959 17.0647L110.345 17.0647L110.345 18.6389ZM119.759 20.2132L119.759 18.6389L119.759 17.0516L121.346 17.0909L122.92 17.1303L122.96 18.6652L123.001 20.2132L121.373 20.2132L119.759 20.2132ZM138.319 18.639L138.319 20.2132L139.933 20.2132L141.547 20.2132L141.547 18.639L141.547 17.0647L139.933 17.0647L138.319 17.0647L138.319 18.639ZM161.72 20.2132L161.72 18.639L161.72 17.0647L163.267 17.0647L164.813 17.0647L164.813 18.639L164.813 20.2132L163.267 20.2132L161.72 20.2132ZM171 18.639L171 20.2132L172.613 20.2132L174.241 20.2132L174.2 18.6652L174.16 17.1303L172.587 17.0909L171 17.0516L171 18.639ZM194.266 20.2132L194.266 18.639L194.266 17.0516L195.853 17.0909L197.426 17.1303L197.467 18.6652L197.507 20.2132L195.88 20.2132L194.266 20.2132ZM231.519 18.639L231.519 20.2132L233.133 20.2132L234.76 20.2132L234.72 18.6652L234.68 17.1303L233.106 17.0909L231.519 17.0516L231.519 18.639ZM250.213 20.2132L250.213 18.639L250.213 17.0516L251.8 17.0909L253.373 17.1303L253.414 18.6652L253.454 20.2132L251.827 20.2132L250.213 20.2132ZM8 23.2304L8 24.8046L9.61386 24.8046L11.2277 24.8046L11.2277 23.2304L11.2277 21.6561L9.61386 21.6561L8 21.6561L8 23.2304ZM26.5593 24.8046L26.5593 23.2304L26.5593 21.6561L28.1732 21.6561L29.787 21.6561L29.787 23.2304L29.787 24.8046L28.1732 24.8046L26.5593 24.8046ZM63.8126 23.2304L63.8126 24.8046L65.4265 24.8046L67.0403 24.8046L67.0403 23.2304L67.0403 21.6561L65.4265 21.6561L63.8126 21.6561L63.8126 23.2304ZM68.3851 24.8046L68.3851 23.2304L68.3851 21.6561L69.999 21.6561L71.6128 21.6561L71.6128 23.2304L71.6128 24.8046L69.999 24.8046L68.3851 24.8046ZM73.0922 23.2304L73.0922 24.8046L74.7061 24.8046L76.3199 24.8046L76.3199 23.2304L76.3199 21.6561L74.7061 21.6561L73.0922 21.6561L73.0922 23.2304ZM77.7993 24.8046L77.7993 23.2304L77.7993 21.6561L79.3459 21.6561L80.8926 21.6561L80.8926 23.2304L80.8926 24.8046L79.3459 24.8046L77.7993 24.8046ZM91.786 23.2304L91.786 24.8046L93.3999 24.8046L95.0137 24.8046L95.0137 23.2304L95.0137 21.6561L93.3999 21.6561L91.786 21.6561L91.786 23.2304ZM96.3586 24.8046L96.3586 23.2304L96.3586 21.6561L97.9725 21.6561L99.5863 21.6561L99.5863 23.2304L99.5863 24.8046L97.9725 24.8046L96.3586 24.8046ZM101.066 23.2304L101.066 24.8046L102.68 24.8046L104.293 24.8046L104.293 23.2304L104.293 21.6561L102.68 21.6561L101.066 21.6561L101.066 23.2304ZM105.773 24.8046L105.773 23.2304L105.773 21.6561L107.319 21.6561L108.866 21.6561L108.866 23.2304L108.866 24.8046L107.319 24.8046L105.773 24.8046ZM119.759 23.2304L119.759 24.8046L121.373 24.8046L122.987 24.8046L122.987 23.2304L122.987 21.6561L121.373 21.6561L119.759 21.6561L119.759 23.2304ZM138.319 24.8046L138.319 23.2304L138.319 21.6561L139.933 21.6561L141.547 21.6561L141.547 23.2304L141.547 24.8046L139.933 24.8046L138.319 24.8046ZM161.72 23.2304L161.72 24.8046L163.267 24.8046L164.813 24.8046L164.813 23.2304L164.813 21.6561L163.267 21.6561L161.72 21.6561L161.72 23.2304ZM171 24.8046L171 23.2304L171 21.6561L172.613 21.6561L174.227 21.6561L174.227 23.2304L174.227 24.8046L172.613 24.8046L171 24.8046ZM175.572 23.2304L175.572 24.8046L177.186 24.8046L178.8 24.8046L178.8 23.2304L178.8 21.6561L177.186 21.6561L175.572 21.6561L175.572 23.2304ZM180.279 24.8046L180.279 23.2304L180.279 21.6561L181.893 21.6561L183.507 21.6561L183.507 23.2304L183.507 24.8046L181.893 24.8046L180.279 24.8046ZM184.986 23.2304L184.986 24.8046L186.533 24.8046L188.08 24.8046L188.08 23.2304L188.08 21.6562L186.533 21.6561L184.986 21.6561L184.986 23.2304ZM194.266 24.8046L194.266 23.2304L194.266 21.6562L195.88 21.6562L197.494 21.6562L197.494 23.2304L197.494 24.8046L195.88 24.8046L194.266 24.8046ZM231.519 23.2304L231.519 24.8046L233.133 24.8046L234.747 24.8046L234.747 23.2304L234.747 21.6562L233.133 21.6562L231.519 21.6562L231.519 23.2304ZM254.786 24.8046L254.786 23.2304L254.786 21.6562L256.399 21.6562L258.013 21.6562L258.013 23.2304L258.013 24.8046L256.399 24.8046L254.786 24.8046ZM259.493 23.2304L259.493 24.8046L261.106 24.8046L262.72 24.8046L262.72 23.2304L262.72 21.6562L261.106 21.6562L259.493 21.6562L259.493 23.2304ZM264.2 24.8046L264.2 23.2304L264.2 21.6562L265.746 21.6562L267.293 21.6562L267.293 23.2304L267.293 24.8046L265.746 24.8046L264.2 24.8046ZM8 27.8221L8 29.4095L9.58694 29.3701L11.1605 29.3308L11.2008 27.7828L11.2412 26.2479L9.61386 26.2479L8 26.2479L8 27.8221ZM26.5593 29.4095L26.5593 27.8221L26.5593 26.2479L28.1732 26.2479L29.8005 26.2479L29.7601 27.7828L29.7198 29.3308L28.1463 29.3701L26.5593 29.4095ZM63.8126 27.8221L63.8126 29.4095L65.3996 29.3701L66.9731 29.3308L67.0135 27.7828L67.0538 26.2479L65.4265 26.2479L63.8126 26.2479L63.8126 27.8221ZM91.786 29.4095L91.786 27.8221L91.786 26.2479L93.3999 26.2479L95.0272 26.2479L94.9868 27.7828L94.9465 29.3308L93.373 29.3701L91.786 29.4095ZM110.345 27.8223L110.345 29.3965L111.959 29.3965L113.573 29.3965L113.573 27.8223L113.573 26.248L111.959 26.2481L110.345 26.2481L110.345 27.8223ZM119.759 29.4095L119.759 27.8221L119.759 26.2479L121.373 26.2479L123.001 26.2479L122.96 27.7828L122.92 29.3308L121.346 29.3701L119.759 29.4095ZM138.319 27.8223L138.319 29.3965L139.933 29.3965L141.547 29.3965L141.547 27.8223L141.547 26.2481L139.933 26.2481L138.319 26.2481L138.319 27.8223ZM161.72 29.3965L161.72 27.8223L161.72 26.2481L163.267 26.2481L164.813 26.2481L164.813 27.8223L164.813 29.3965L163.267 29.3965L161.72 29.3965ZM171 27.8221L171 29.4095L172.587 29.3701L174.16 29.3308L174.2 27.7828L174.241 26.2479L172.613 26.2479L171 26.2479L171 27.8221ZM194.266 29.4095L194.266 27.8221L194.266 26.2479L195.88 26.2479L197.507 26.2479L197.467 27.7828L197.426 29.3308L195.853 29.3701L194.266 29.4095ZM231.519 27.8221L231.519 29.4095L233.106 29.3701L234.68 29.3308L234.72 27.7828L234.76 26.2479L233.133 26.2479L231.519 26.2479L231.519 27.8221ZM268.772 29.3965L268.772 27.8223L268.772 26.2481L270.386 26.2481L272 26.2481L272 27.8223L272 29.3965L270.386 29.3965L268.772 29.3965ZM8 32.2824L8 33.8567L9.61386 33.8567L11.2412 33.8567L11.2008 32.3087L11.1605 30.7738L9.58694 30.7344L8 30.6951L8 32.2824ZM26.5593 33.8567L26.5593 32.2824L26.5593 30.7082L28.1732 30.7082L29.787 30.7082L29.787 32.2824L29.787 33.8567L28.1732 33.8567L26.5593 33.8567ZM63.8126 32.2824L63.8126 33.8567L65.4265 33.8567L67.0538 33.8567L67.0135 32.3087L66.9731 30.7738L65.3996 30.7344L63.8126 30.6951L63.8126 32.2824ZM91.786 33.8567L91.786 32.2824L91.786 30.6951L93.373 30.7344L94.9465 30.7738L94.9868 32.3087L95.0272 33.8567L93.3999 33.8567L91.786 33.8567ZM110.345 32.2824L110.345 33.8567L111.959 33.8567L113.573 33.8567L113.573 32.2824L113.573 30.7082L111.959 30.7082L110.345 30.7082L110.345 32.2824ZM119.759 33.8567L119.759 32.2824L119.759 30.6951L121.346 30.7344L122.92 30.7738L122.96 32.3087L123.001 33.8567L121.373 33.8567L119.759 33.8567ZM138.319 32.2824L138.319 33.8567L139.933 33.8567L141.547 33.8567L141.547 32.2824L141.547 30.7082L139.933 30.7082L138.319 30.7082L138.319 32.2824ZM147.733 33.8567L147.733 32.2824L147.733 30.6951L149.32 30.7344L150.894 30.7738L150.934 32.3087L150.974 33.8567L149.347 33.8567L147.733 33.8567ZM161.72 32.2824L161.72 33.8567L163.267 33.8567L164.813 33.8567L164.813 32.2824L164.813 30.7082L163.267 30.7082L161.72 30.7082L161.72 32.2824ZM171 33.8567L171 32.2824L171 30.6951L172.587 30.7344L174.16 30.7738L174.2 32.3087L174.241 33.8567L172.613 33.8567L171 33.8567ZM194.266 32.2825L194.266 33.8567L195.88 33.8567L197.507 33.8567L197.467 32.3087L197.426 30.7738L195.853 30.7344L194.266 30.6951L194.266 32.2825ZM212.825 33.8567L212.825 32.2825L212.825 30.7082L214.439 30.7082L216.053 30.7082L216.053 32.2825L216.053 33.8567L214.439 33.8567L212.825 33.8567ZM231.519 32.2825L231.519 33.8567L233.133 33.8567L234.747 33.8567L234.747 32.2825L234.747 30.7082L233.133 30.7082L231.519 30.7082L231.519 32.2825ZM250.213 33.8567L250.213 32.2825L250.213 30.6951L251.8 30.7344L253.373 30.7738L253.414 32.3087L253.454 33.8567L251.827 33.8567L250.213 33.8567ZM268.772 32.2825L268.772 33.8567L270.386 33.8567L272 33.8567L272 32.2825L272 30.7082L270.386 30.7082L268.772 30.7082L268.772 32.2825ZM8 38.4615L8 36.8742L8 35.2999L9.61386 35.2999L11.2412 35.2999L11.2008 36.8348L11.1605 38.3828L9.58694 38.4222L8 38.4615ZM26.5593 36.8739L26.5593 38.4481L28.1732 38.4481L29.787 38.4481L29.787 36.8739L29.787 35.2996L28.1732 35.2996L26.5593 35.2996L26.5593 36.8739ZM63.8126 38.4615L63.8126 36.8742L63.8126 35.2999L65.4265 35.2999L67.0538 35.2999L67.0135 36.8348L66.9731 38.3828L65.3996 38.4222L63.8126 38.4615ZM91.786 36.8742L91.786 38.4615L93.373 38.4222L94.9465 38.3828L94.9868 36.8348L95.0272 35.2999L93.3999 35.2999L91.786 35.2999L91.786 36.8742ZM110.345 38.4481L110.345 36.8739L110.345 35.2996L111.959 35.2996L113.573 35.2996L113.573 36.8739L113.573 38.4481L111.959 38.4481L110.345 38.4481ZM124.332 36.8739L124.332 38.4481L125.946 38.4481L127.56 38.4481L127.56 36.8739L127.56 35.2996L125.946 35.2996L124.332 35.2996L124.332 36.8739ZM129.039 38.4481L129.039 36.8739L129.039 35.2996L130.653 35.2996L132.267 35.2996L132.267 36.8739L132.267 38.4481L130.653 38.4481L129.039 38.4481ZM133.746 36.8739L133.746 38.4481L135.293 38.4481L136.84 38.4481L136.84 36.8739L136.84 35.2996L135.293 35.2996L133.746 35.2996L133.746 36.8739ZM152.306 38.4481L152.306 36.8739L152.306 35.2996L153.92 35.2996L155.533 35.2996L155.533 36.8739L155.533 38.4481L153.92 38.4481L152.306 38.4481ZM157.013 36.8739L157.013 38.4481L158.627 38.4481L160.241 38.4481L160.241 36.8739L160.241 35.2996L158.627 35.2996L157.013 35.2996L157.013 36.8739ZM171 38.4615L171 36.8742L171 35.2999L172.613 35.2999L174.241 35.2999L174.2 36.8348L174.16 38.3828L172.587 38.4222L171 38.4615ZM175.572 36.8739L175.572 38.4481L177.186 38.4481L178.8 38.4481L178.8 36.8739L178.8 35.2996L177.186 35.2996L175.572 35.2996L175.572 36.8739ZM180.279 38.4481L180.279 36.8739L180.279 35.2996L181.893 35.2996L183.507 35.2996L183.507 36.8739L183.507 38.4481L181.893 38.4481L180.279 38.4481ZM184.986 36.8739L184.986 38.4481L186.533 38.4481L188.08 38.4481L188.08 36.8739L188.08 35.2996L186.533 35.2996L184.986 35.2996L184.986 36.8739ZM198.839 38.4481L198.839 36.8739L198.839 35.2996L200.452 35.2996L202.066 35.2996L202.066 36.8739L202.066 38.4481L200.452 38.4481L198.839 38.4481ZM203.546 36.8739L203.546 38.4481L205.159 38.4481L206.773 38.4481L206.773 36.8739L206.773 35.2996L205.159 35.2996L203.546 35.2996L203.546 36.8739ZM208.253 38.4481L208.253 36.8739L208.253 35.2996L209.799 35.2996L211.346 35.2996L211.346 36.8739L211.346 38.4481L209.799 38.4481L208.253 38.4481ZM231.519 36.8739L231.519 38.4481L233.133 38.4481L234.747 38.4481L234.747 36.8739L234.747 35.2996L233.133 35.2997L231.519 35.2997L231.519 36.8739ZM254.786 38.4481L254.786 36.8739L254.786 35.2997L256.399 35.2997L258.013 35.2996L258.013 36.8739L258.013 38.4481L256.399 38.4481L254.786 38.4481ZM259.493 36.8739L259.493 38.4481L261.106 38.4481L262.72 38.4481L262.72 36.8739L262.72 35.2996L261.106 35.2997L259.493 35.2997L259.493 36.8739ZM264.2 38.4481L264.2 36.8739L264.2 35.2997L265.746 35.2997L267.293 35.2996L267.293 36.8739L267.293 38.4481L265.746 38.4481L264.2 38.4481Z" fill="black" stroke="black" stroke-width="0.2"/>
</svg>
