<svg width="42" height="326" viewBox="0 0 42 326" fill="none" xmlns="http://www.w3.org/2000/svg">
<path fill-rule="evenodd" clip-rule="evenodd" d="M9.14806 4.96878H11.224V2.98439V1H9.14806H7.07209V2.98439V4.96878L9.14806 4.96878ZM5.16925 10.5911H3.09327H1.0173L1.0173 8.68939L1.0173 6.78768H3.09327H5.16925L5.16925 8.68939V10.5911ZM3.09327 16.3791H5.16925V14.3947L5.16925 12.4103H3.09327H1.0173L1.0173 14.3947L1.0173 16.3791H3.09327ZM5.16925 22.1667H3.09327H1.0173L1.0173 20.1823L1.0173 18.1979H3.09327H5.16925L5.16925 20.1823V22.1667ZM3.09327 39.3648H5.16925V37.3804L5.16925 35.396H3.09327H1.0173L1.0173 37.3804L1.0173 39.3648H3.09327ZM5.16925 44.9873H3.09327H1.0173L1.0173 43.0856L1.0173 41.1839H3.09327H5.16925L5.16925 43.0856V44.9873ZM3.09327 50.7751H5.16925V48.7907L5.16925 46.8063H3.09327H1.0173L1.0173 48.7907L1.0173 50.7751H3.09327ZM5.16925 56.5627H3.09327H1.0173L1.0173 54.5784L1.0173 52.594H3.09327H5.16925L5.16925 54.5784V56.5627ZM3.09327 62.1854H5.16925V60.201L5.16925 58.2L3.12787 58.2496L1.1038 58.2993L1.0519 60.234L1 62.1854H3.09327ZM5.16925 79.3833H3.09327H1.0173L1.0173 77.4816L1.0173 75.5799H3.09327H5.16925L5.16925 77.4816V79.3833ZM3.09327 85.1711H5.16925V83.1867L5.16925 81.2023H3.09327H1.0173L1.0173 83.1867L1.0173 85.1711H3.09327ZM5.16925 90.9589H3.09327H1.0173L1.0173 88.9745L1.0173 86.9901H3.09327H5.16925L5.16925 88.9745V90.9589ZM3.09327 107.992H5.16925V106.09L5.16925 104.188H3.09327H1.0173L1.0173 106.09L1.0173 107.992H3.09327ZM5.16925 113.779H3.09327H1.0173L1.0173 111.795L1.0173 109.811H3.09327H5.16925L5.16925 111.795V113.779ZM3.09327 119.567H5.16925V117.583L5.16925 115.598H3.09327H1.0173L1.0173 117.583L1.0173 119.567H3.09327ZM5.16925 125.189H3.09327H1L1.0519 123.238L1.1038 121.303L3.12787 121.254L5.16925 121.204L5.16925 123.205V125.189ZM3.09327 136.6H5.16925V134.698L5.16925 132.796H3.09327H1.0173L1.0173 134.698L1.0173 136.6H3.09327ZM5.16925 170.996H3.09327H1.0173L1.0173 169.094L1.0173 167.192H3.09327H5.16925L5.16925 169.094V170.996ZM3.09327 176.784H5.16925V174.799L5.16925 172.815H3.09327H1.0173L1.0173 174.799L1.0173 176.784H3.09327ZM5.16925 182.571H3.09327H1.0173L1.0173 180.587L1.0173 178.603H3.09327H5.16925L5.16925 180.587V182.571ZM3.09327 205.392H5.16925V203.49L5.16925 201.589H3.09327H1.0173L1.0173 203.49L1.0173 205.392H3.09327ZM5.16925 211.18H3.09327H1.0173L1.0173 209.195L1.0173 207.211H3.09327H5.16925L5.16925 209.195V211.18ZM3.09327 216.968H5.16925V214.983L5.16925 212.999H3.09327H1.0173L1.0173 214.983L1.0173 216.968H3.09327ZM5.16925 222.59H3.09327H1L1.0519 220.639L1.1038 218.704L3.12787 218.654L5.16925 218.605L5.16925 220.606V222.59ZM3.09327 239.788H5.16925V237.886L5.16925 235.985H3.09327H1.0173L1.0173 237.886L1.0173 239.788H3.09327ZM5.16925 245.576H3.09327H1.0173L1.0173 243.591L1.0173 241.607H3.09327H5.16925L5.16925 243.591V245.576ZM3.09327 251.364H5.16925V249.379L5.16925 247.395H3.09327H1.0173L1.0173 249.379L1.0173 251.364H3.09327ZM5.16925 256.986H3.09327H1L1.0519 255.035L1.1038 253.1L3.12787 253.05L5.16925 253.001L5.16925 255.001V256.986ZM3.09327 291.382H5.16925V289.398L5.16925 287.413H3.09327H1.0173L1.0173 289.398L1.0173 291.382H3.09327ZM5.16925 297.005H3.09327H1.0173L1.0173 295.103L1.0173 293.201H3.09327H5.16925L5.16925 295.103V297.005ZM3.09327 302.792H5.16925V300.808L5.16925 298.824H3.09327H1.0173L1.0173 300.808L1.0173 302.792H3.09327ZM5.16925 308.58H3.09327H1.0173L1.0173 306.596L1.0173 304.611H3.09327H5.16925L5.16925 306.596V308.58ZM3.09327 314.202H5.16925V312.218L5.16925 310.217L3.12787 310.267L1.1038 310.316L1.0519 312.251L1 314.202H3.09327ZM3.09327 325.613H5.16925V323.628L5.16925 321.627L3.12787 321.677L1.1038 321.727L1.0519 323.661L1 325.613H3.09327ZM9.14844 325.613H11.2417L11.1898 323.661L11.1379 321.727L9.09654 321.677L7.07247 321.627V323.628V325.613H9.14844ZM11.224 302.792H9.14806H7.07209V300.808V298.824H9.14806H11.224V300.808V302.792ZM9.14844 256.986H11.2417L11.1898 255.035L11.1379 253.1L9.09654 253.05L7.07247 253.001V255.001V256.986H9.14844ZM11.224 234.165H9.14806H7.07209V232.181V230.197H9.14806H11.224V232.181V234.165ZM9.14844 222.59H11.2417L11.1898 220.639L11.1379 218.704L9.09654 218.654L7.07247 218.605V220.606V222.59H9.14844ZM11.224 199.769H9.14806H7.07209V197.785V195.801H9.14806H11.224V197.785V199.769ZM9.14844 188.194H11.2417L11.1898 186.243L11.1379 184.308L9.09654 184.258L7.07247 184.209V186.21V188.194H9.14844ZM11.224 165.373H9.14806H7.07209V163.389V161.405H9.14806H11.224V163.389V165.373ZM9.14806 136.6H11.224V134.698V132.796H9.14806H7.07209V134.698V136.6H9.14806ZM11.2417 125.189H9.14844H7.07247V123.205V121.204L9.09654 121.254L11.1379 121.303L11.1898 123.238L11.2417 125.189ZM9.14844 96.5814H11.2417L11.1898 94.6301L11.1379 92.6953L9.09654 92.6457L7.07247 92.5961V94.597V96.5814H9.14844ZM11.224 73.761H9.14806H7.07209V71.7766V69.7922H9.14806H11.224V71.7766V73.761ZM9.14806 50.7751H11.224V48.7907V46.8063H9.14806H7.07209V48.7907V50.7751H9.14806ZM11.2417 27.7892H9.14844H7.07247V25.8048V23.8039L9.09654 23.8535L11.1379 23.9031L11.1898 25.8379L11.2417 27.7892ZM17.1057 325.613H15.0297H12.9364L12.9883 323.661L13.0402 321.727L15.0643 321.677L17.1057 321.627V323.628V325.613ZM15.0297 302.792H17.1057V300.808V298.807L15.0643 298.857L13.0402 298.906L12.9883 300.841L12.9364 302.792H15.0297ZM17.1057 256.986H15.0297H12.9364L12.9883 255.035L13.0402 253.1L15.0643 253.05L17.1057 253.001V255.001V256.986ZM15.0297 234.165H17.1057V232.181V230.197H15.0297H12.9537V232.181V234.165H15.0297ZM17.1057 222.59H15.0297H12.9364L12.9883 220.639L13.0402 218.704L15.0643 218.654L17.1057 218.605V220.606V222.59ZM15.0297 199.769H17.1057V197.785V195.801H15.0297H12.9537V197.785V199.769H15.0297ZM17.1057 188.194H15.0297H12.9364L12.9883 186.243L13.0402 184.308L15.0643 184.258L17.1057 184.209V186.21V188.194ZM15.0297 165.373H17.1057V163.389V161.405H15.0297H12.9537V163.389V165.373H15.0297ZM17.1057 136.6H15.0297H12.9537V134.698V132.796H15.0297H17.1057V134.698V136.6ZM15.0297 125.189H17.1057V123.205V121.204L15.0643 121.254L13.0402 121.303L12.9883 123.238L12.9364 125.189H15.0297ZM17.1057 96.5814H15.0297H12.9364L12.9883 94.6301L13.0402 92.6953L15.0643 92.6457L17.1057 92.5961V94.597V96.5814ZM15.0297 50.7751H17.1057V48.7907V46.7898L15.0643 46.8394L13.0402 46.889L12.9883 48.8238L12.9364 50.7751H15.0297ZM17.1057 27.7892H15.0297H12.9364L12.9883 25.8379L13.0402 23.9031L15.0643 23.8535L17.1057 23.8039V25.8048V27.7892ZM21.0845 325.613H23.1605V323.628V321.644H21.0845H19.0085V323.628V325.613H21.0845ZM23.1605 302.792H21.0845H19.0085V300.808V298.824H21.0845H23.1605V300.808V302.792ZM21.0845 256.986H23.1605V255.001V253.017H21.0845H19.0085V255.001V256.986H21.0845ZM23.1605 251.364H21.0845H19.0085V249.379V247.395H21.0845H23.1605V249.379V251.364ZM21.0845 245.576H23.1605V243.591V241.607H21.0845H19.0085V243.591V245.576H21.0845ZM23.1605 239.788H21.0845H19.0085V237.886V235.985H21.0845H23.1605V237.886V239.788ZM21.0845 222.59H23.1605V220.606V218.621H21.0845H19.0085V220.606V222.59H21.0845ZM23.1605 216.968H21.0845H19.0085V214.983V212.999H21.0845H23.1605V214.983V216.968ZM21.0845 211.18H23.1605V209.195V207.211H21.0845H19.0085V209.195V211.18H21.0845ZM23.1605 205.392H21.0845H19.0085V203.49V201.589H21.0845H23.1605V203.49V205.392ZM21.0845 188.194H23.1605V186.21V184.225H21.0845H19.0085V186.21V188.194H21.0845ZM23.1605 165.373H21.0845H19.0085V163.389V161.405H21.0845H23.1605V163.389V165.373ZM21.0845 136.6H23.1605V134.698V132.796H21.0845H19.0085V134.698V136.6H21.0845ZM23.1605 125.189H21.0845H19.0085V123.205V121.221H21.0845H23.1605V123.205V125.189ZM21.0845 119.567H23.1605V117.583V115.598H21.0845H19.0085V117.583V119.567H21.0845ZM23.1605 113.779H21.0845H19.0085V111.795V109.811H21.0845H23.1605V111.795V113.779ZM21.0845 107.992H23.1605V106.09V104.188H21.0845H19.0085V106.09V107.992H21.0845ZM23.1605 96.5814H21.0845H19.0085V94.597V92.6126H21.0845H23.1605V94.597V96.5814ZM21.0845 50.7751H23.1605V48.7907V46.8063H21.0845H19.0085V48.7907V50.7751H21.0845ZM23.1605 22.1667H21.0845H19.0085V20.1823V18.1979H21.0845H23.1605V20.1823V22.1667ZM21.0845 16.3791H23.1605V14.3947V12.4103H21.0845H19.0085V14.3947V16.3791H21.0845ZM23.1605 10.5911H21.0845H19.0085V8.68939V6.78768H21.0845H23.1605V8.68939V10.5911ZM27.1397 325.613H29.2329L29.181 323.661L29.1291 321.727L27.0878 321.677L25.0637 321.627V323.628V325.613H27.1397ZM29.2329 302.792H27.1397H25.0637V300.808V298.807L27.0878 298.857L29.1291 298.906L29.181 300.841L29.2329 302.792ZM27.1397 256.986H29.2329L29.181 255.035L29.1291 253.1L27.0878 253.05L25.0637 253.001V255.001V256.986H27.1397ZM29.2329 222.59H27.1397H25.0637V220.606V218.605L27.0878 218.654L29.1291 218.704L29.181 220.639L29.2329 222.59ZM27.1399 199.769H29.2159V197.785V195.801H27.1399H25.0639L25.0639 197.785V199.769H27.1399ZM29.2329 188.194H27.1397H25.0637V186.21V184.209L27.0878 184.258L29.1291 184.308L29.181 186.243L29.2329 188.194ZM27.1399 165.373H29.2159V163.389V161.405H27.1399H25.0639L25.0639 163.389V165.373H27.1399ZM29.2159 136.6H27.1399H25.0639V134.698L25.0639 132.796H27.1399H29.2159V134.698V136.6ZM27.1397 125.189H29.2329L29.181 123.238L29.1291 121.303L27.0878 121.254L25.0637 121.204V123.205V125.189H27.1397ZM29.2329 96.5814H27.1397H25.0637V94.597V92.5961L27.0878 92.6457L29.1291 92.6953L29.181 94.6301L29.2329 96.5814ZM27.1397 50.7751H29.2329L29.181 48.8238L29.1291 46.889L27.0878 46.8394L25.0637 46.7898V48.7907V50.7751H27.1397ZM29.2159 4.96878H27.1399L25.0639 4.96878V2.98439L25.0639 1H27.1399H29.2159V2.98439V4.96878ZM33.0216 325.613H35.0975V323.628V321.627L33.0562 321.677L31.0321 321.727L30.9802 323.661L30.9283 325.613H33.0216ZM35.0975 302.792H33.0216H30.9456V300.808L30.9456 298.824H33.0216H35.0975V300.808V302.792ZM33.0216 256.986H35.0975V255.001V253.001L33.0562 253.05L31.0321 253.1L30.9802 255.035L30.9283 256.986H33.0216ZM35.0975 222.59H33.0216H30.9283L30.9802 220.639L31.0321 218.704L33.0562 218.654L35.0975 218.605V220.606V222.59ZM33.0216 199.769H35.0975V197.785V195.801H33.0216H30.9456L30.9456 197.785V199.769H33.0216ZM35.0975 188.194H33.0216H30.9283L30.9802 186.243L31.0321 184.308L33.0562 184.258L35.0975 184.209V186.21V188.194ZM33.0216 165.373H35.0975V163.389V161.405H33.0216H30.9456L30.9456 163.389V165.373H33.0216ZM35.0975 153.798H33.0216H30.9283L30.9802 151.846L31.0321 149.912L33.0562 149.862L35.0975 149.812V151.813V153.798ZM33.0216 136.6H35.0975V134.698V132.796H33.0216H30.9456L30.9456 134.698V136.6H33.0216ZM35.0975 125.189H33.0216H30.9283L30.9802 123.238L31.0321 121.303L33.0562 121.254L35.0975 121.204V123.205V125.189ZM33.0216 96.5814H35.0975V94.597V92.5961L33.0562 92.6457L31.0321 92.6953L30.9802 94.6301L30.9283 96.5814H33.0216ZM35.0975 73.761H33.0216H30.9456V71.7766L30.9456 69.7922H33.0216H35.0975V71.7766V73.761ZM33.0216 50.7751H35.0975V48.7907V46.8063H33.0216H30.9456L30.9456 48.7907V50.7751H33.0216ZM35.0975 27.7892H33.0216H30.9283L30.9802 25.8379L31.0321 23.9031L33.0562 23.8535L35.0975 23.8039V25.8048V27.7892ZM33.0216 4.96878H35.0975V2.98439V1H33.0216H30.9456L30.9456 2.98439V4.96878L33.0216 4.96878ZM41.17 325.613H39.0767H37.0008V323.628V321.627L39.0248 321.677L41.0662 321.727L41.1181 323.661L41.17 325.613ZM39.0763 302.792H41.1523V300.808V298.824H39.0763H37.0004L37.0004 300.808V302.792H39.0763ZM41.17 256.986H39.0767H37.0008V255.001V253.001L39.0248 253.05L41.0662 253.1L41.1181 255.035L41.17 256.986ZM39.0767 222.59H41.17L41.1181 220.639L41.0662 218.704L39.0248 218.654L37.0008 218.605V220.606V222.59H39.0767ZM41.1523 199.769H39.0763H37.0004V197.785L37.0004 195.801H39.0763H41.1523V197.785V199.769ZM39.0763 182.571H41.1523V180.587V178.603H39.0763H37.0004L37.0004 180.587V182.571H39.0763ZM41.1523 176.784H39.0763H37.0004V174.799L37.0004 172.815H39.0763H41.1523V174.799V176.784ZM39.0763 170.996H41.1523V169.094V167.192H39.0763H37.0004L37.0004 169.094V170.996H39.0763ZM41.1523 148.175H39.0763H37.0004V146.191L37.0004 144.207H39.0763H41.1523V146.191V148.175ZM39.0763 142.388H41.1523V140.403V138.419H39.0763H37.0004L37.0004 140.403V142.388H39.0763ZM41.17 125.189H39.0767H37.0008V123.205V121.204L39.0248 121.254L41.0662 121.303L41.1181 123.238L41.17 125.189ZM39.0763 119.567H41.1523V117.583V115.598H39.0763H37.0004L37.0004 117.583V119.567H39.0763ZM41.1523 113.779H39.0763H37.0004V111.795L37.0004 109.811H39.0763H41.1523V111.795V113.779ZM39.0763 107.992H41.1523V106.09V104.188H39.0763H37.0004L37.0004 106.09V107.992H39.0763ZM41.1523 90.9589H39.0763H37.0004V88.9745L37.0004 86.9901H39.0763H41.1523V88.9745V90.9589ZM39.0763 85.1711H41.1523V83.1867V81.2023H39.0763H37.0004L37.0004 83.1867V85.1711H39.0763ZM41.1523 79.3833H39.0763H37.0004V77.4816L37.0004 75.5799H39.0763H41.1523V77.4816V79.3833ZM39.0763 50.7751H41.1523V48.7907V46.8063H39.0763H37.0004L37.0004 48.7907V50.7751H39.0763ZM41.1523 22.1667H39.0763H37.0004V20.1823L37.0004 18.1979H39.0763H41.1523V20.1823V22.1667ZM39.0763 16.3791H41.1523V14.3947V12.4103H39.0763H37.0004L37.0004 14.3947V16.3791H39.0763ZM41.1523 10.5911H39.0763H37.0004V8.68939L37.0004 6.78768H39.0763H41.1523V8.68939V10.5911Z" fill="black" stroke="black" stroke-width="0.2"/>
</svg>
