<svg width="167" height="48" viewBox="0 0 167 48" fill="none" xmlns="http://www.w3.org/2000/svg">
<path fill-rule="evenodd" clip-rule="evenodd" d="M80.7588 4.06835L67.6367 14.8245L64.3937 17.4827H68.5414H80.7588V14.4991H72.689L80.7588 7.88428V4.06835ZM90.6494 0.49756L83.0789 17.4827H87.1068L88.6204 13.843H96.4939L98.0016 17.4827H102.127L94.5317 0.49756H90.6494ZM95.2576 10.8585L92.5648 4.35803L89.8615 10.8585H95.2576ZM107.795 13.1951V17.4827H103.889V0.49756H107.795V8.42373L115.317 0.49756H118.241H119.685H122.414L126.942 8.03761L131.489 0.49756H135.347L128.747 11.4689V17.4827H124.816V11.4286L118.808 1.44106L112.653 8.06505L120.097 17.4827H115.511L110.071 10.8192L107.795 13.1951ZM141.287 0.49756L133.717 17.4827H137.745L139.258 13.843H147.132L148.64 17.4827H152.765L145.17 0.49756H141.287ZM145.896 10.8585L143.203 4.35804L140.499 10.8585H145.896ZM157.192 17.4827V3.70047H151.757V0.49756H166.558V3.70047H161.123V17.4827H157.192ZM44.249 17.9411C42.9176 17.9411 41.6904 17.7325 40.5676 17.3155C39.4607 16.8824 38.4902 16.2728 37.6561 15.4868C36.838 14.7008 36.1963 13.7784 35.7311 12.7197C35.282 11.661 35.0574 10.498 35.0574 9.23072C35.0574 7.96347 35.282 6.80048 35.7311 5.74176C36.1963 4.68305 36.846 3.76068 37.6801 2.97466C38.5143 2.18865 39.4928 1.5871 40.6157 1.17003C41.7386 0.73692 42.9737 0.520365 44.3212 0.520365C45.813 0.520365 47.1525 0.769002 48.3395 1.26628C49.5426 1.76355 50.5532 2.48541 51.3713 3.43184L48.8689 5.74176C48.2593 5.10012 47.5936 4.6269 46.8717 4.32212C46.1499 4.0013 45.3639 3.84089 44.5137 3.84089C43.6956 3.84089 42.9497 3.96922 42.2759 4.22587C41.6022 4.48253 41.0167 4.85148 40.5194 5.33272C40.0382 5.81395 39.6612 6.38341 39.3885 7.0411C39.1319 7.69879 39.0035 8.42866 39.0035 9.23072C39.0035 10.0167 39.1319 10.7386 39.3885 11.3963C39.6612 12.054 40.0382 12.6314 40.5194 13.1287C41.0167 13.61 41.5942 13.9789 42.2519 14.2356C42.9256 14.4922 43.6635 14.6206 44.4656 14.6206C45.2355 14.6206 45.9814 14.5002 46.7033 14.2596C46.9711 14.1665 47.2358 14.0511 47.4973 13.9136V8.96604H51.0585V15.7996C50.1441 16.4893 49.0774 17.0187 47.8583 17.3877C46.6552 17.7566 45.4521 17.9411 44.249 17.9411ZM0 0.809105V17.6523H3.898V12.9603H7.29071C7.35214 12.9603 7.41322 12.9599 7.47395 12.9591L10.7075 17.6523H14.9183L11.1557 12.2529L11.1887 12.2384C12.2795 11.7572 13.1217 11.0674 13.7152 10.1691C14.3087 9.25478 14.6055 8.172 14.6055 6.92079C14.6055 5.65354 14.3087 4.56274 13.7152 3.64839C13.1217 2.73405 12.2795 2.03625 11.1887 1.55502C10.0979 1.05774 8.79858 0.809105 7.29071 0.809105H0ZM3.898 9.85632H7.07416C8.27724 9.85632 9.17555 9.59967 9.76907 9.08635C10.3626 8.55699 10.6594 7.83514 10.6594 6.92079C10.6594 5.9904 10.3626 5.26855 9.76907 4.75523C9.17555 4.24192 8.27724 3.98526 7.07416 3.98526H3.898V9.85632ZM22.9874 0.809105L15.4802 17.6523H19.4744L20.9754 14.0431H28.783L30.2781 17.6523H34.3686L26.8373 0.809105H22.9874ZM27.5571 11.0835L24.8868 4.63732L22.2061 11.0835H27.5571ZM72.4296 47.2781C73.4883 46.7969 74.2824 46.1633 74.8118 45.3773C75.3411 44.5913 75.6058 43.725 75.6058 42.7786C75.6058 41.8963 75.4213 41.1665 75.0524 40.589C74.6995 40.0115 74.2343 39.5463 73.6568 39.1934C73.0793 38.8405 72.4377 38.5598 71.7318 38.3512C71.0421 38.1427 70.3443 37.9582 69.6385 37.7978C68.9487 37.6374 68.3151 37.477 67.7376 37.3166C67.1601 37.1562 66.6949 36.9476 66.342 36.691C65.9891 36.4183 65.8127 36.0654 65.8127 35.6323C65.8127 35.2633 65.9169 34.9425 66.1255 34.6698C66.334 34.3811 66.6789 34.1484 67.1601 33.972C67.6413 33.7955 68.2589 33.7073 69.0129 33.7073C69.7668 33.7073 70.5368 33.8196 71.3228 34.0442C72.1088 34.2527 72.8948 34.5816 73.6809 35.0307L74.8839 32.0711C74.0979 31.5738 73.1916 31.2049 72.165 30.9643C71.1383 30.7076 70.0957 30.5793 69.0369 30.5793C67.4489 30.5793 66.1255 30.8199 65.0667 31.3011C64.0241 31.7663 63.2381 32.4 62.7087 33.202C62.1954 33.988 61.9387 34.8623 61.9387 35.8248C61.9387 36.7231 62.1152 37.461 62.4681 38.0384C62.837 38.6159 63.3102 39.0811 63.8877 39.434C64.4652 39.7869 65.0988 40.0757 65.7886 40.3002C66.4944 40.5248 67.1922 40.7173 67.882 40.8777C68.5878 41.0221 69.2294 41.1825 69.8069 41.359C70.3844 41.5194 70.8496 41.7359 71.2025 42.0086C71.5554 42.2653 71.7318 42.6182 71.7318 43.0673C71.7318 43.4202 71.6196 43.7331 71.395 44.0057C71.1704 44.2785 70.8175 44.495 70.3363 44.6554C69.8711 44.7998 69.2535 44.872 68.4835 44.872C67.4729 44.872 66.4703 44.7116 65.4758 44.3907C64.4973 44.0539 63.6471 43.6288 62.9252 43.1155L61.6018 46.051C62.3558 46.6285 63.3503 47.1017 64.5855 47.4706C65.8207 47.8235 67.112 48 68.4594 48C70.0636 48 71.387 47.7594 72.4296 47.2781ZM0 47.7113V30.868H3.898V47.7113H0ZM8.3765 47.7113V30.868H11.6008L19.9743 41.0865V30.868H23.8241V47.7113H20.6239L12.2264 37.4882V47.7113H8.3765ZM26.0062 30.868L33.2729 47.7113H37.1228L44.4135 30.868H40.5395L35.3395 42.898L30.2171 30.868H26.0062ZM50.175 44.5832V40.6852H57.995V37.6534H50.175V33.9961H59.0297V30.868H46.301V47.7113H59.3425V44.5832H50.175ZM82.0045 34.0442H76.6147V30.868H91.2924V34.0442H85.9025V47.7113H82.0045V34.0442ZM93.8709 30.868V47.7113H97.5283V37.8197L102.461 45.9307H104.217L109.177 37.6019L109.198 47.7113H112.856L112.808 30.868H109.607L103.404 41.3265L97.0952 30.868H93.8709ZM121.207 44.5832V40.6852H129.027V37.6534H121.207V33.9961H130.062V30.868H117.333V47.7113H130.374V44.5832H121.207ZM133.957 30.868V47.7113H137.807V37.4882L146.205 47.7113H149.405V30.868H145.555V41.0865L137.182 30.868H133.957ZM157.36 34.0442H151.97V30.868H166.648V34.0442H161.258V47.7113H157.36V34.0442Z" fill="white"/>
<path d="M77.3329 2.65821L80.5753 0H76.4279H64.2003V2.98366H72.2809L64.2003 9.60835L64.2006 13.4245L77.3329 2.65821Z" fill="#EBB249"/>
</svg>
