<svg width="119" height="20" viewBox="0 0 119 20" fill="none" xmlns="http://www.w3.org/2000/svg">
<path fill-rule="evenodd" clip-rule="evenodd" d="M3.93131 16.959L18.9428 4.65414V9.0195L9.711 16.5867H18.9428V20H4.96618H0.221338L3.93131 16.959ZM30.4363 0.0686035L21.6048 19.8755H26.3036L28.0693 15.6311H37.2542L39.013 19.8755H43.8251L34.9652 0.0686035H30.4363ZM32.6707 4.5704L35.812 12.1508H29.5172L32.6707 4.5704ZM50.4381 14.8756V19.8755H45.8808V0.0686035H50.4381V9.31153L59.2129 0.0686035H62.6231H64.308H67.4918L72.7739 8.86127L78.0783 0.0686035H82.5789L74.8797 12.8626V19.8755H70.2941V12.8156L63.2853 1.16885L56.1048 8.89326L64.7892 19.8755H59.4394L53.0932 12.105L50.4381 14.8756ZM108.062 19.8755V3.80361H101.722V0.0686035H118.989V3.80361H112.648V19.8755H108.062ZM80.6771 19.8755L89.5086 0.0686035H94.0376L102.897 19.8755H98.0854L96.3266 15.6311H87.1416L85.3759 19.8755H80.6771ZM94.8843 12.1508L91.743 4.57041L88.5895 12.1508H94.8843Z" fill="#141414"/>
<path d="M15.0236 3.04095L0.000396729 15.3571L0 10.9918L9.24402 3.41326H0L0.000396729 0H13.9886H18.7328L15.0236 3.04095Z" fill="#EBB249"/>
</svg>
