<svg width="429" height="133" viewBox="0 0 429 133" fill="none" xmlns="http://www.w3.org/2000/svg">
<path d="M3.62271 2.61475e-05C2.66225 0.00116448 1.74146 0.388599 1.06231 1.07733C0.383168 1.76606 0.00112025 2.69984 0 3.67385V128.976C0.00112251 129.95 0.383167 130.884 1.06231 131.573C1.74146 132.261 2.66226 132.649 3.62271 132.65H424.938C425.898 132.649 426.819 132.261 427.498 131.573C428.177 130.884 428.559 129.95 428.561 128.976V3.67382C428.559 2.69982 428.177 1.76604 427.498 1.07731C426.819 0.388586 425.898 0.00114514 424.938 0L3.62271 2.61475e-05Z" fill="white"/>
<path d="M9.07832 123.444H419.482V9.20703H9.07832V123.444Z" fill="#F3F4F5"/>
<path d="M367.679 99.7441C366.088 99.7441 364.561 100.385 363.436 101.527C362.31 102.668 361.678 104.216 361.678 105.83C361.678 107.444 362.31 108.992 363.436 110.133C364.561 111.274 366.088 111.915 367.679 111.915H391.683C393.274 111.915 394.8 111.274 395.926 110.133C397.051 108.992 397.683 107.444 397.683 105.83C397.683 104.216 397.051 102.668 395.926 101.527C394.8 100.385 393.274 99.7441 391.683 99.7441H367.679Z" fill="#C3C5C8"/>
<path d="M397.684 87.9404H120.592V89.5416H397.684V87.9404Z" fill="white"/>
<path d="M62.6713 101.77C81.9747 101.77 97.6233 85.9008 97.6233 66.325C97.6233 46.7492 81.9747 30.8799 62.6713 30.8799C43.3678 30.8799 27.7193 46.7492 27.7193 66.325C27.7193 85.9008 43.3678 101.77 62.6713 101.77Z" fill="white"/>
<path d="M69.0236 58.8592L54.0004 71.3492L54 66.9223L63.244 59.2368H54L54.0004 55.7754H67.9886H72.7328L69.0236 58.8592Z" fill="#EBB249"/>
<path d="M57.9313 72.9736L72.9428 60.4952V64.9221L63.711 72.5961H72.9428V76.0576H58.9662H54.2213L57.9313 72.9736Z" fill="#C3C5C8"/>
<path d="M121.03 78.9995L120.154 77.6671L148.948 58.2007L168.693 67.8122L197.093 49.4116L197.477 49.577L253.589 73.851L298.579 51.4388L342.266 69.3999L397.16 20.0928L398.207 21.2914L342.58 71.2566L298.64 53.1918L253.635 75.6117L197.241 51.216L168.803 69.6415L149.075 60.0385L121.03 78.9995Z" fill="#EBB249"/>
<path d="M125.724 100.582C124.364 100.584 123.06 101.133 122.099 102.109C121.138 103.084 120.599 104.407 120.599 105.786C120.599 107.165 121.138 108.487 122.099 109.463C123.06 110.439 124.364 110.988 125.724 110.989H179.405C180.766 110.989 182.071 110.441 183.033 109.465C183.996 108.489 184.536 107.166 184.536 105.786C184.536 104.406 183.996 103.082 183.033 102.106C182.071 101.13 180.766 100.582 179.405 100.582H125.724Z" fill="white"/>
<path d="M82.0376 54.516C80.258 51.4606 77.7887 48.8772 74.8327 46.9781C71.8767 45.079 68.5184 43.9186 65.034 43.5922C61.5496 43.2658 58.0386 43.7827 54.7895 45.1004C51.5405 46.4182 48.6463 48.4992 46.3448 51.1723L44.9219 49.9113C47.4195 47.0093 50.5609 44.7499 54.0875 43.3191C57.6141 41.8884 61.4253 41.327 65.2076 41.6813C68.9899 42.0355 72.6352 43.2952 75.8438 45.3568C79.0523 47.4184 81.7325 50.223 83.6638 53.5399L82.0376 54.516Z" fill="#E6E6E6"/>
<path d="M82.9282 79.4801L81.36 78.4107C83.6826 74.8977 84.9787 70.7904 85.0986 66.5626C85.2185 62.3348 84.1574 58.1587 82.0377 54.5162L83.6638 53.54C85.9654 57.4943 87.1176 62.0279 86.9875 66.6177C86.8573 71.2076 85.4501 75.6665 82.9282 79.4801Z" fill="#EBB249"/>
<path d="M45.1188 82.1495C41.2128 77.7256 39.0367 72.0061 39.0005 66.0681C38.9642 60.1302 41.0702 54.3837 44.9219 49.9111L46.3449 51.1721C42.7967 55.2924 40.8567 60.5862 40.8901 66.0563C40.9235 71.5265 42.9281 76.7955 46.5263 80.8709L45.1188 82.1495Z" fill="#EBB249"/>
<path d="M62.9987 90.2558C59.6243 90.2533 56.2883 89.5302 53.2077 88.1336C50.1271 86.7371 47.371 84.6984 45.1188 82.1502L46.5263 80.8717C48.773 83.4172 51.5636 85.4084 54.6851 86.6933C57.8065 87.9782 61.1762 88.5227 64.5368 88.2853C67.8974 88.0479 71.1601 87.0349 74.0758 85.3236C76.9914 83.6123 79.4829 81.248 81.36 78.4111L82.9281 79.4804C80.7343 82.7982 77.7684 85.5168 74.2925 87.3961C70.8166 89.2755 66.9377 90.2576 62.9987 90.2558Z" fill="#EBB249"/>
</svg>
