<svg width="357" height="109" viewBox="0 0 357 109" fill="none" xmlns="http://www.w3.org/2000/svg">
<path d="M3.01779 4.29201e-05C2.21771 0.000977175 1.45067 0.318937 0.88493 0.884196C0.319186 1.44946 0.000936919 2.21587 0 3.01526V105.855C0.00093694 106.654 0.319185 107.421 0.88493 107.986C1.45067 108.551 2.21772 108.869 3.01779 108.87H353.982C354.782 108.869 355.549 108.551 356.115 107.986C356.681 107.421 356.999 106.654 357 105.855V3.01522C356.999 2.21583 356.681 1.44941 356.115 0.884153C355.549 0.318892 354.782 0.000939852 353.982 0L3.01779 4.29201e-05Z" fill="white"/>
<path d="M7.56244 101.314H349.437V7.55566H7.56244V101.314Z" fill="#F3F4F5"/>
<path d="M306.284 81.8633C305.627 81.8625 304.977 81.9911 304.37 82.2418C303.762 82.4924 303.211 82.8602 302.746 83.3241C302.281 83.7879 301.912 84.3388 301.661 84.9452C301.409 85.5515 301.28 86.2015 301.28 86.8579C301.28 87.5143 301.409 88.1643 301.661 88.7706C301.912 89.377 302.281 89.9278 302.746 90.3917C303.211 90.8556 303.762 91.2233 304.37 91.474C304.977 91.7246 305.627 91.8533 306.284 91.8525H326.28C327.606 91.8525 328.877 91.3263 329.815 90.3896C330.752 89.4529 331.279 88.1825 331.279 86.8579C331.279 85.5332 330.752 84.2628 329.815 83.3262C328.877 82.3895 327.606 81.8633 326.28 81.8633H306.284Z" fill="#EBB249"/>
<path d="M331.279 72.1748H100.456V73.4885H331.279V72.1748Z" fill="white"/>
<path d="M52.2063 83.5265C68.2865 83.5265 81.322 70.5021 81.322 54.4356C81.322 38.3692 68.2865 25.3447 52.2063 25.3447C36.1261 25.3447 23.0906 38.3692 23.0906 54.4356C23.0906 70.5021 36.1261 83.5265 52.2063 83.5265Z" fill="white"/>
<path d="M100.82 64.8377L100.091 63.7443L124.077 47.7668L140.525 55.6553L164.183 40.5534L211.245 60.6115L248.722 42.2172L285.115 56.9584L330.843 16.4912L331.715 17.475L285.376 58.4829L248.774 43.6559L211.283 62.0566L164.305 42.0343L140.616 57.1574L124.183 49.2766L100.82 64.8377Z" fill="#5D6670"/>
<path d="M104.73 82.5508C104.168 82.5501 103.612 82.66 103.093 82.8743C102.573 83.0886 102.102 83.4031 101.704 83.7998C101.307 84.1964 100.991 84.6675 100.776 85.186C100.561 85.7045 100.45 86.2604 100.45 86.8217C100.45 87.383 100.561 87.9388 100.776 88.4573C100.991 88.9758 101.307 89.4469 101.704 89.8435C102.102 90.2402 102.573 90.5547 103.093 90.769C103.612 90.9833 104.168 91.0932 104.73 91.0925H149.448C150.581 91.0911 151.667 90.6405 152.467 89.8397C153.267 89.0389 153.717 87.9534 153.717 86.8217C153.717 85.6899 153.267 84.6044 152.467 83.8036C151.667 83.0028 150.581 82.5522 149.448 82.5508H104.73Z" fill="white"/>
<path d="M63.3265 41.4199H67.876L58.4096 50.7803C56.7559 52.4089 54.5271 53.3219 52.2051 53.3219C49.8832 53.3219 47.6544 52.4089 46.0007 50.7803L36.5355 41.4199H41.085L48.2761 48.5307C49.3235 49.5623 50.7351 50.1405 52.2058 50.1405C53.6765 50.1405 55.0881 49.5623 56.1355 48.5307L63.3265 41.4199ZM41.0271 67.4488H36.4777L46.002 58.0306C47.6557 56.402 49.8844 55.489 52.2064 55.489C54.5284 55.489 56.7572 56.402 58.4109 58.0306L67.9352 67.4488H63.3857L56.1355 60.2802C55.0881 59.2486 53.6765 58.6703 52.2058 58.6703C50.7351 58.6703 49.3235 59.2486 48.2761 60.2802L41.0271 67.4488Z" fill="#5D6670"/>
</svg>
