<svg width="429" height="143" viewBox="0 0 429 143" fill="none" xmlns="http://www.w3.org/2000/svg">
<path d="M3.62271 2.81178e-05C2.66225 0.00125223 1.74146 0.417882 1.06231 1.15851C0.383168 1.89914 0.00112025 2.90329 0 3.95069V138.695C0.00112251 139.743 0.383167 140.747 1.06231 141.487C1.74146 142.228 2.66226 142.645 3.62271 142.646H424.938C425.898 142.645 426.819 142.228 427.498 141.487C428.177 140.747 428.559 139.743 428.561 138.695V3.95066C428.559 2.90327 428.177 1.89912 427.498 1.15849C426.819 0.417867 425.898 0.00123144 424.938 0L3.62271 2.81178e-05Z" fill="white"/>
<path d="M9.07812 132.746H419.482V9.90039H9.07812V132.746Z" fill="#F3F4F5"/>
<path d="M367.679 107.261C366.088 107.261 364.561 107.95 363.436 109.177C362.31 110.405 361.678 112.069 361.678 113.805C361.678 115.54 362.31 117.205 363.436 118.432C364.561 119.66 366.088 120.349 367.679 120.349H391.683C393.274 120.349 394.8 119.66 395.926 118.432C397.051 117.205 397.683 115.54 397.683 113.805C397.683 112.069 397.051 110.405 395.926 109.177C394.8 107.95 393.274 107.261 391.683 107.261H367.679Z" fill="#C3C5C8"/>
<path d="M397.684 94.5671H120.592V96.2889H397.684V94.5671Z" fill="white"/>
<path d="M62.6712 109.439C81.9747 109.439 97.6232 92.3739 97.6232 71.323C97.6232 50.272 81.9747 33.2069 62.6712 33.2069C43.3678 33.2069 27.7192 50.272 27.7192 71.323C27.7192 92.3739 43.3678 109.439 62.6712 109.439Z" fill="white"/>
<path d="M69.0236 63.2952L54.0004 76.7264L54 71.9659L63.244 63.7013H54L54.0004 59.979H67.9886H72.7328L69.0236 63.2952Z" fill="#EBB249"/>
<path d="M57.9313 78.4732L72.9428 65.0545V69.815L63.711 78.0673H72.9428V81.7895H58.9662H54.2213L57.9313 78.4732Z" fill="#C3C5C8"/>
<path d="M121.03 84.9522L120.154 83.5194L148.948 62.5861L168.693 72.9219L197.093 53.1347L197.477 53.3125L253.589 79.4157L298.579 55.3147L342.266 74.6292L397.16 21.6066L398.207 22.8956L342.58 76.6258L298.64 57.1998L253.635 81.3091L197.241 55.0751L168.802 74.889L149.075 64.5624L121.03 84.9522Z" fill="#D1D1D1"/>
<path d="M125.723 108.161C124.364 108.163 123.06 108.753 122.099 109.803C121.138 110.852 120.599 112.274 120.599 113.757C120.599 115.24 121.138 116.662 122.099 117.711C123.06 118.76 124.364 119.351 125.723 119.353H179.405C180.766 119.353 182.071 118.763 183.033 117.714C183.996 116.664 184.536 115.241 184.536 113.757C184.536 112.273 183.996 110.849 183.033 109.8C182.071 108.751 180.766 108.161 179.405 108.161H125.723Z" fill="white"/>
<path d="M82.0376 58.6244C80.258 55.3387 77.7887 52.5606 74.8327 50.5184C71.8767 48.4763 68.5184 47.2284 65.034 46.8774C61.5496 46.5263 58.0386 47.0822 54.7895 48.4993C51.5405 49.9164 48.6463 52.1542 46.3448 55.0287L44.9219 53.6727C47.4195 50.5519 50.5609 48.1224 54.0875 46.5838C57.6141 45.0452 61.4253 44.4415 65.2076 44.8225C68.9899 45.2034 72.6352 46.5581 75.8438 48.775C79.0523 50.992 81.7325 54.0079 83.6638 57.5747L82.0376 58.6244Z" fill="#E6E6E6"/>
<path d="M82.9281 85.4694L81.3599 84.3195C83.6825 80.5418 84.9786 76.125 85.0985 71.5786C85.2184 67.0322 84.1573 62.5414 82.0376 58.6244L83.6637 57.5747C85.9653 61.8269 87.1175 66.7022 86.9874 71.6379C86.8572 76.5735 85.45 81.3685 82.9281 85.4694Z" fill="#EBB249"/>
<path d="M45.1188 88.3404C41.2128 83.5832 39.0367 77.4326 39.0005 71.0472C38.9642 64.6618 41.0702 58.4823 44.9219 53.6727L46.3449 55.0287C42.7967 59.4595 40.8567 65.1522 40.8901 71.0346C40.9235 76.9169 42.9281 82.583 46.5263 86.9655L45.1188 88.3404Z" fill="#EBB249"/>
<path d="M62.9985 97.0568C59.6242 97.0541 56.2881 96.2765 53.2076 94.7747C50.127 93.2729 47.3709 91.0806 45.1187 88.3404L46.5261 86.9655C48.7729 89.7029 51.5635 91.8441 54.6849 93.2258C57.8064 94.6075 61.176 95.1931 64.5367 94.9378C67.8973 94.6826 71.16 93.5932 74.0756 91.7529C76.9913 89.9127 79.4827 87.3702 81.3598 84.3196L82.928 85.4695C80.7341 89.0372 77.7682 91.9607 74.2923 93.9816C70.8164 96.0026 66.9376 97.0588 62.9985 97.0568Z" fill="#EBB249"/>
</svg>
