<svg width="319" height="107" viewBox="0 0 319 107" fill="none" xmlns="http://www.w3.org/2000/svg">
<path d="M2.69657 0.806417C1.98166 0.807327 1.29628 1.11743 0.790755 1.66871C0.285231 2.22 0.000833866 2.96744 0 3.74708V104.044C0.000835543 104.824 0.285231 105.572 0.790755 106.123C1.29628 106.674 1.98166 106.984 2.69657 106.985H316.304C317.018 106.984 317.704 106.674 318.209 106.123C318.715 105.572 318.999 104.824 319 104.044V3.74706C318.999 2.96743 318.715 2.22 318.209 1.66871C317.704 1.11743 317.018 0.807311 316.304 0.806396L2.69657 0.806417Z" fill="white"/>
<path d="M6.75732 99.616H312.242V8.17578H6.75732V99.616Z" fill="#F3F4F5"/>
<path d="M46.6494 82.2676C61.0179 82.2676 72.666 69.5651 72.666 53.8958C72.666 38.2265 61.0179 25.524 46.6494 25.524C32.2808 25.524 20.6328 38.2265 20.6328 53.8958C20.6328 69.5651 32.2808 82.2676 46.6494 82.2676Z" fill="#C3C5C8"/>
<path d="M90.0887 64.0411L89.4365 62.9746L110.869 47.3928L125.567 55.0863L146.706 40.3577L146.992 40.49L188.759 59.92L222.248 41.9803L254.766 56.3565L295.627 16.8896L296.406 17.8498L255 57.8433L222.294 43.3835L188.793 61.3294L146.817 41.802L125.648 56.5506L110.965 48.8646L90.0887 64.0411Z" fill="#D1D1D1"/>
<path d="M46.6463 72.5946L57.1783 56.4196L46.6463 63.2009L36.1206 56.4196L46.6457 72.5946H46.6463Z" fill="#F3F4F5"/>
<path d="M46.6457 61.0277H46.6463L57.172 54.2429L46.6463 35.197H46.6457L36.1206 54.2429L46.6457 61.0277Z" fill="#F3F4F5"/>
</svg>
