<svg width="357" height="119" viewBox="0 0 357 119" fill="none" xmlns="http://www.w3.org/2000/svg">
<path d="M3.01779 4.68613e-05C2.21771 0.00106691 1.45067 0.348224 0.88493 0.965391C0.319186 1.58256 0.000936919 2.41934 0 3.29215V115.575C0.00093694 116.448 0.319185 117.285 0.88493 117.902C1.45067 118.519 2.21772 118.866 3.01779 118.867H353.982C354.782 118.866 355.549 118.519 356.115 117.902C356.681 117.285 356.999 116.448 357 115.575V3.2921C356.999 2.4193 356.681 1.58251 356.115 0.965344C355.549 0.348176 354.782 0.00102616 353.982 0L3.01779 4.68613e-05Z" fill="white"/>
<path d="M7.5625 110.617H349.437V8.24988H7.5625V110.617Z" fill="#F3F4F5"/>
<path d="M306.285 89.3809C305.628 89.38 304.977 89.5205 304.37 89.7941C303.763 90.0678 303.211 90.4693 302.746 90.9758C302.281 91.4823 301.912 92.0837 301.661 92.7457C301.409 93.4078 301.28 94.1174 301.28 94.8341C301.28 95.5508 301.409 96.2605 301.661 96.9225C301.912 97.5845 302.281 98.186 302.746 98.6924C303.211 99.1989 303.763 99.6004 304.37 99.8741C304.977 100.148 305.628 100.288 306.285 100.287H326.28C327.606 100.287 328.877 99.7128 329.815 98.6902C330.752 97.6675 331.279 96.2804 331.279 94.8341C331.279 93.3878 330.752 92.0008 329.815 90.9781C328.877 89.9554 327.606 89.3809 326.28 89.3809H306.285Z" fill="#C3C5C8"/>
<path d="M331.279 78.8032H100.456V80.2375H331.279V78.8032Z" fill="white"/>
<path d="M52.2066 91.1959C68.2867 91.1959 81.3223 76.9755 81.3223 59.4337C81.3223 41.8919 68.2867 27.6714 52.2066 27.6714C36.1264 27.6714 23.0908 41.8919 23.0908 59.4337C23.0908 76.9755 36.1264 91.1959 52.2066 91.1959Z" fill="#C3C5C8"/>
<path d="M100.82 70.7916L100.091 69.5977L124.077 52.1531L140.525 60.766L164.183 44.2772L211.245 66.1773L248.722 46.0938L285.115 62.1887L330.843 18.0055L331.715 19.0796L285.377 63.8532L248.774 47.6646L211.283 67.7551L164.306 45.8942L140.616 62.406L124.183 53.8015L100.82 70.7916Z" fill="#D1D1D1"/>
<path d="M104.73 90.131C104.168 90.1302 103.612 90.2502 103.093 90.4842C102.573 90.7182 102.102 91.0616 101.704 91.4947C101.307 91.9277 100.991 92.442 100.776 93.0082C100.561 93.5743 100.45 94.1812 100.45 94.7941C100.45 95.4069 100.561 96.0138 100.776 96.5799C100.991 97.146 101.307 97.6603 101.704 98.0934C102.102 98.5265 102.573 98.8699 103.093 99.1039C103.612 99.3378 104.168 99.4579 104.73 99.4571H149.448C150.581 99.4555 151.667 98.9635 152.467 98.0892C153.267 97.2149 153.717 96.0297 153.717 94.7941C153.717 93.5584 153.267 92.3732 152.467 91.4989C151.667 90.6246 150.581 90.1326 149.448 90.131H104.73Z" fill="white"/>
<path d="M63.3264 45.224H67.8759L58.4095 55.4439C56.7557 57.2221 54.527 58.2189 52.205 58.2189C49.883 58.2189 47.6543 57.2221 46.0006 55.4439L36.5354 45.224H41.0849L48.276 52.9878C49.3233 54.114 50.735 54.7454 52.2057 54.7454C53.6764 54.7454 55.088 54.114 56.1353 52.9878L63.3264 45.224ZM41.027 73.643H36.4775L46.0019 63.36C47.6556 61.5818 49.8843 60.5851 52.2063 60.5851C54.5283 60.5851 56.757 61.5818 58.4107 63.36L67.9351 73.643H63.3856L56.1354 65.8161C55.088 64.6899 53.6764 64.0585 52.2057 64.0585C50.735 64.0585 49.3234 64.6899 48.276 65.8161L41.027 73.643Z" fill="#F3F4F5"/>
</svg>
