<svg width="319" height="97" viewBox="0 0 319 97" fill="none" xmlns="http://www.w3.org/2000/svg">
<path d="M2.69657 0.80666C1.98166 0.807483 1.29628 1.08838 0.790755 1.58776C0.285231 2.08713 0.000833866 2.76418 0 3.4704V94.3229C0.000835543 95.0291 0.285231 95.7062 0.790755 96.2055C1.29628 96.7049 1.98166 96.9858 2.69657 96.9866H316.304C317.018 96.9858 317.704 96.7049 318.209 96.2055C318.715 95.7062 318.999 95.0291 319 94.3229V3.47039C318.999 2.76417 318.715 2.08713 318.209 1.58776C317.704 1.08838 317.018 0.807469 316.304 0.806641L2.69657 0.80666Z" fill="white"/>
<path d="M6.75748 90.3109H312.242V7.48145H6.75748V90.3109Z" fill="#F3F4F5"/>
<path d="M46.6493 74.5973C61.0179 74.5973 72.6659 63.091 72.6659 48.8973C72.6659 34.7036 61.0179 23.1973 46.6493 23.1973C32.2808 23.1973 20.6328 34.7036 20.6328 48.8973C20.6328 63.091 32.2808 74.5973 46.6493 74.5973Z" fill="white"/>
<path d="M90.089 58.0862L89.4368 57.1202L110.869 43.0057L125.567 49.9747L146.706 36.6331L146.993 36.753L188.759 54.3532L222.248 38.1029L254.766 51.1253L295.627 15.375L296.406 16.2447L255 52.4721L222.294 39.374L188.794 55.6299L146.817 37.9414L125.648 51.3011L110.965 44.3389L90.089 58.0862Z" fill="#141414"/>
<path d="M90.6522 60.7112L90 59.7452L111.433 45.6307L126.13 52.5997L147.27 39.2581L147.556 39.378L189.322 56.9782L222.811 40.7279L255.33 53.7503L296.19 18L296.97 18.8697L255.564 55.0971L222.857 41.999L189.357 58.2549L147.38 40.5664L126.211 53.9261L111.528 46.9639L90.6522 60.7112Z" fill="white"/>
<path d="M46.6466 65.8345L57.1785 51.1826L46.6466 57.3254L36.1208 51.1826L46.6459 65.8345H46.6466Z" fill="#969696"/>
<path d="M46.6459 55.3572H46.6465L57.1722 49.2113L46.6465 31.959H46.6459L36.1208 49.2113L46.6459 55.3572Z" fill="#5D6670"/>
</svg>
