<svg width="326" height="280" viewBox="0 0 326 280" fill="none" xmlns="http://www.w3.org/2000/svg">
<path d="M74.0955 273.757H251.066C253.294 273.757 255.101 271.885 255.101 269.575V9.96449C255.101 7.65469 253.294 5.78223 251.066 5.78223H74.0955C71.8674 5.78223 70.0612 7.65469 70.0612 9.96449V269.575C70.0612 271.885 71.8674 273.757 74.0955 273.757Z" fill="#F3F4F5"/>
<path d="M251.855 277.04C255.445 277.04 258.355 274.13 258.355 270.54V9C258.355 5.41015 255.445 2.5 251.855 2.5H73.3067C69.7168 2.5 66.8067 5.41016 66.8067 9.00001V270.54C66.8067 274.13 69.7169 277.04 73.3067 277.04H251.855ZM74.8159 270.475C73.9875 270.475 73.3159 269.804 73.3159 268.975V10.5646C73.3159 9.73616 73.9875 9.06458 74.8159 9.06458H250.346C251.174 9.06458 251.846 9.73615 251.846 10.5646V268.975C251.846 269.804 251.174 270.475 250.346 270.475H74.8159Z" fill="white" stroke="white" stroke-width="5"/>
<path d="M213.932 48.1797C214.65 48.1797 215.232 48.7831 215.232 49.5276V52.2233C215.232 52.9678 214.65 53.5712 213.932 53.5712H111.231C110.513 53.5712 109.931 52.9677 109.931 52.2233V49.5276C109.931 48.7832 110.513 48.1797 111.231 48.1797H213.932Z" fill="white"/>
<path d="M213.932 60.9814C214.65 60.9814 215.232 61.5849 215.232 62.3293V65.0251C215.232 65.7695 214.65 66.373 213.932 66.373H111.231C110.513 66.373 109.931 65.7695 109.931 65.0251V62.3293C109.931 61.5849 110.513 60.9814 111.231 60.9814H213.932Z" fill="white"/>
<path d="M213.932 73.7871C214.65 73.7871 215.232 74.3906 215.232 75.135V77.8308C215.232 78.5752 214.65 79.1786 213.932 79.1786H111.231C110.513 79.1786 109.931 78.5752 109.931 77.8308V75.1358C109.931 74.3914 110.513 73.7879 111.231 73.7879H213.932" fill="#C3C5C8"/>
<path d="M143.944 139.639C145.864 138.355 146.269 135.607 144.925 133.691L138.632 124.714C137.163 122.615 134.33 122.149 132.305 123.672C132.126 123.808 131.956 123.956 131.798 124.117C121.142 130.022 115.406 138.647 121.784 148.842C121.784 150.545 121.903 152.245 122.142 153.929C122.245 154.66 122.483 155.375 122.885 155.985C124.079 157.796 126.187 158.46 128.041 157.834L138.334 154.367C140.52 153.63 141.704 151.155 140.896 148.924C139.853 146.04 140.283 142.087 143.944 139.639Z" fill="#C3C5C8"/>
<path d="M168.371 166.119C165.41 165.816 162.882 168.346 162.882 171.43V180.635C162.882 180.873 162.9 181.111 162.935 181.347C163.315 183.912 165.629 185.671 168.103 185.277C182.527 187.12 192.384 180.617 192.977 166.35C193.072 166.15 193.152 165.943 193.219 165.731C193.987 163.266 192.683 160.621 190.305 159.824L181.688 156.922C178.715 155.92 175.625 157.921 175.105 161.117C174.635 164.003 172.797 166.572 168.371 166.119Z" fill="#C3C5C8"/>
<path opacity="0.8" d="M115.094 175.118C118.085 193.523 133.663 200.505 149.909 201.609C150.227 201.659 150.549 201.685 150.87 201.685C154.375 201.687 157.217 198.744 157.218 195.111V179.72C157.218 175.415 153.815 172.062 149.663 172.019C145.648 171.977 143.032 170.008 141.957 166.392C140.729 162.262 136.352 160.084 132.387 161.42L118.836 165.985C117.08 166.576 115.66 167.929 114.943 169.692C114.231 171.438 114.286 173.418 115.094 175.118Z" fill="#EBB249"/>
<path d="M198.579 111.479C196.078 108.94 192.065 108.983 189.615 111.576C189.397 111.806 189.196 112.053 189.013 112.315L176.972 129.496C175.432 131.693 176.312 134.754 178.719 135.827C184.356 138.339 183.763 143.98 181.928 147.431C181.029 149.123 181.771 151.24 183.543 151.837L203.833 158.672C207.171 159.789 210.751 157.889 211.829 154.429C211.937 154.08 212.018 153.723 212.069 153.361C212.417 150.953 212.593 148.521 212.592 146.085C216.025 132.817 211.275 120.308 198.579 111.479H198.579Z" fill="#5D6670"/>
<path d="M163.734 131.402C165.982 132.714 168.819 132.08 170.335 129.916L174.37 124.16C175.153 123.044 175.424 121.628 175.113 120.287C174.813 118.969 173.97 117.855 172.808 117.238C163.315 108.347 152.081 107.801 142.554 117.193C141.356 117.819 140.484 118.959 140.169 120.311C139.859 121.643 140.128 123.05 140.906 124.158L145.62 130.885C147.239 133.195 150.376 133.799 152.607 132.125C155.849 129.692 160.558 129.548 163.734 131.402V131.402Z" fill="#C3C5C8"/>
<path d="M110.589 247.347C110.952 245.758 112.652 245.235 114.043 245.295C114.922 245.357 115.793 245.5 116.647 245.723C117.541 245.93 118.426 246.176 119.306 246.435C120.921 246.912 122.519 247.49 124.16 247.863C125.537 248.254 126.987 248.276 128.374 247.927C129.708 247.547 130.759 246.479 131.151 245.103C131.549 243.788 130.975 242.367 129.792 241.739C128.697 241.114 127.321 241.527 126.717 242.662C126.708 242.679 126.7 242.695 126.691 242.712C126.184 244.112 126.582 245.692 127.685 246.656C128.25 247.206 128.87 247.694 129.533 248.111C130.206 248.586 130.955 248.934 131.745 249.138C133.09 249.507 134.51 248.932 135.257 247.717C135.406 247.426 135.495 247.106 135.52 246.778C135.559 246.331 134.886 246.334 134.847 246.778C134.734 248.058 133.288 248.655 132.206 248.516C131.476 248.391 130.779 248.11 130.159 247.692C129.56 247.331 128.993 246.916 128.464 246.452C127.547 245.629 126.687 244.276 127.303 242.992C127.782 242.167 128.816 241.901 129.612 242.398C129.718 242.465 129.817 242.543 129.906 242.632C130.869 243.448 130.697 244.929 130.063 245.899C129.3 246.912 128.122 247.494 126.883 247.471C125.577 247.473 124.278 247.262 123.035 246.845C121.484 246.389 119.949 245.878 118.392 245.448C117.507 245.204 116.616 244.984 115.716 244.813C114.865 244.618 113.99 244.556 113.121 244.627C111.654 244.698 110.384 245.709 109.938 247.16C109.841 247.599 110.49 247.785 110.589 247.347Z" fill="#D1D1D1"/>
<path d="M137.24 229.156C137.443 229.156 137.608 229.759 137.608 230.504V233.2C137.608 233.944 137.443 234.548 137.24 234.548H108.212C108.009 234.548 107.845 233.945 107.845 233.2V230.504C107.845 229.759 108.009 229.156 108.212 229.156H137.24Z" fill="white"/>
<path d="M214.865 229.156C215.068 229.156 215.232 229.759 215.232 230.504V233.2C215.232 233.944 215.068 234.548 214.865 234.548H185.837C185.634 234.548 185.469 233.945 185.469 233.2V230.504C185.469 229.759 185.634 229.156 185.837 229.156H214.865Z" fill="white"/>
<path d="M201.94 244.342L196.178 246.317L193.297 247.304C192.412 247.696 191.454 247.878 190.493 247.839C189.783 247.789 189.159 247.331 188.879 246.653C188.757 245.974 189.038 245.284 189.595 244.902C190.969 243.818 192.708 244.921 193.683 246.044C194.875 247.418 195.549 249.191 196.667 250.629C197.661 251.92 198.923 252.962 200.358 253.68C203.226 255.155 206.647 254.852 209.232 252.894C212.27 250.465 212.58 246.254 212.596 242.582C212.584 242.229 212.298 241.953 211.958 241.965C211.634 241.977 211.375 242.246 211.363 242.582C211.349 245.91 211.166 249.991 208.238 252.074C205.434 254.069 201.749 253.54 199.166 251.414C197.835 250.185 196.728 248.719 195.897 247.084C194.975 245.52 193.83 244.009 192.095 243.402C190.56 242.824 188.845 243.446 187.992 244.889C187.256 246.172 187.664 247.83 188.902 248.593C188.998 248.652 189.097 248.704 189.199 248.75C191.212 249.744 193.514 248.579 195.451 247.915L202.27 245.579C203.019 245.323 202.698 244.088 201.942 244.347L201.94 244.342Z" fill="#C3C5C8"/>
<path d="M298.067 124.008H215.584V125.572H298.067V124.008Z" fill="#D1D1D1"/>
<path d="M314.668 134.938C308.843 134.938 304.104 130.025 304.104 123.986C304.104 117.947 308.843 113.034 314.668 113.034C320.494 113.034 325.233 117.947 325.233 123.986C325.233 130.025 320.494 134.938 314.668 134.938ZM314.668 114.599C309.676 114.599 305.613 118.81 305.613 123.986C305.613 129.162 309.676 133.374 314.668 133.374C319.661 133.374 323.724 129.162 323.724 123.986C323.724 118.81 319.661 114.599 314.668 114.599Z" fill="#C3C5C8"/>
<path d="M314.668 129.462C317.586 129.462 319.951 127.01 319.951 123.986C319.951 120.961 317.586 118.51 314.668 118.51C311.751 118.51 309.386 120.961 309.386 123.986C309.386 127.01 311.751 129.462 314.668 129.462Z" fill="#5D6670"/>
<path d="M109.649 181.897H27.1656V183.462H109.649V181.897Z" fill="#D1D1D1"/>
<path d="M0 181.876C0 175.837 4.73909 170.924 10.5644 170.924C16.3897 170.924 21.1288 175.837 21.1288 181.876C21.1288 187.915 16.3897 192.828 10.5644 192.828C4.73909 192.828 0 187.915 0 181.876ZM1.5092 181.876C1.5092 187.052 5.57144 191.263 10.5644 191.263C15.5574 191.263 19.6196 187.052 19.6196 181.876C19.6196 176.7 15.5574 172.488 10.5644 172.488C5.57144 172.488 1.5092 176.7 1.5092 181.876Z" fill="#EBB249"/>
<path d="M10.5644 187.351C13.4817 187.351 15.8466 184.9 15.8466 181.875C15.8466 178.851 13.4817 176.399 10.5644 176.399C7.64715 176.399 5.28223 178.851 5.28223 181.875C5.28223 184.9 7.64715 187.351 10.5644 187.351Z" fill="#EBB249"/>
</svg>
