<svg width="326" height="294" viewBox="0 0 326 294" fill="none" xmlns="http://www.w3.org/2000/svg">
<path d="M74.0953 287.714H251.066C253.294 287.714 255.1 285.744 255.1 283.314V10.2223C255.1 7.79257 253.294 5.82288 251.066 5.82288H74.0953C71.8672 5.82288 70.061 7.79257 70.061 10.2223V283.314C70.061 285.744 71.8672 287.714 74.0953 287.714Z" fill="#F3F4F5"/>
<path d="M251.855 291.037C255.445 291.037 258.355 288.127 258.355 284.537V9C258.355 5.41015 255.445 2.5 251.855 2.5H73.3066C69.7168 2.5 66.8066 5.41015 66.8066 9V284.537C66.8066 288.127 69.7168 291.037 73.3066 291.037H251.855ZM74.8158 284.391C73.9874 284.391 73.3158 283.719 73.3158 282.891V10.6458C73.3158 9.8174 73.9874 9.14582 74.8159 9.14582H250.346C251.174 9.14582 251.846 9.8174 251.846 10.6458V282.891C251.846 283.719 251.174 284.391 250.346 284.391H74.8158Z" fill="white" stroke="white" stroke-width="5"/>
<path d="M213.932 50.4215C214.65 50.4215 215.232 51.0563 215.232 51.8394V54.6751C215.232 55.4582 214.65 56.093 213.932 56.093H111.231C110.513 56.093 109.931 55.4582 109.931 54.6751V51.8394C109.931 51.0563 110.513 50.4215 111.231 50.4215H213.932Z" fill="white"/>
<path d="M213.932 63.8892C214.65 63.8892 215.232 64.5239 215.232 65.307V68.1428C215.232 68.9259 214.65 69.5607 213.932 69.5607H111.231C110.513 69.5607 109.931 68.9258 109.931 68.1428V65.307C109.931 64.524 110.513 63.8892 111.231 63.8892H213.932Z" fill="white"/>
<path d="M213.932 77.3578C214.65 77.3578 215.232 77.9926 215.232 78.7757V81.6114C215.232 82.3945 214.65 83.0293 213.932 83.0293H111.231C110.513 83.0293 109.931 82.3945 109.931 81.6114V78.7765C109.931 77.9934 110.513 77.3586 111.231 77.3586H213.932" fill="#C3C5C8"/>
<path d="M143.944 146.63C145.864 145.279 146.269 142.388 144.925 140.372L138.632 130.929C137.162 128.721 134.33 128.231 132.305 129.834C132.126 129.976 131.956 130.132 131.798 130.301C121.142 136.513 115.406 145.586 121.783 156.31C121.783 158.101 121.903 159.89 122.142 161.662C122.245 162.43 122.483 163.183 122.885 163.824C124.079 165.729 126.187 166.428 128.041 165.769L138.334 162.122C140.52 161.347 141.704 158.744 140.896 156.396C139.852 153.362 140.283 149.204 143.944 146.63Z" fill="white"/>
<path d="M168.371 174.485C165.41 174.166 162.882 176.828 162.882 180.073V189.755C162.882 190.006 162.9 190.256 162.935 190.504C163.315 193.202 165.629 195.053 168.103 194.638C182.527 196.576 192.384 189.736 192.977 174.729C193.072 174.518 193.152 174.3 193.218 174.077C193.987 171.484 192.683 168.702 190.305 167.864L181.687 164.81C178.714 163.757 175.625 165.862 175.104 169.223C174.634 172.259 172.797 174.962 168.371 174.485Z" fill="white"/>
<path d="M115.095 183.953C118.086 203.313 133.663 210.658 149.909 211.819C150.228 211.872 150.549 211.899 150.871 211.899C154.375 211.901 157.217 208.805 157.219 204.984V188.794C157.219 184.265 153.815 180.739 149.663 180.693C145.648 180.649 143.032 178.577 141.957 174.774C140.729 170.429 136.352 168.138 132.387 169.543L118.836 174.345C117.08 174.967 115.66 176.39 114.944 178.245C114.231 180.081 114.286 182.164 115.095 183.953Z" fill="#D1D1D1"/>
<path d="M198.579 117.008C196.078 114.337 192.065 114.382 189.615 117.109C189.397 117.352 189.196 117.612 189.013 117.887L176.972 135.96C175.432 138.271 176.312 141.491 178.719 142.619C184.356 145.263 183.763 151.196 181.928 154.827C181.029 156.606 181.771 158.833 183.543 159.461L203.833 166.651C207.171 167.826 210.751 165.828 211.829 162.188C211.937 161.821 212.018 161.445 212.069 161.064C212.417 158.531 212.593 155.973 212.592 153.411C216.025 139.453 211.275 126.295 198.579 117.008H198.579Z" fill="#C3C5C8"/>
<path d="M163.734 137.965C165.982 139.345 168.819 138.677 170.335 136.401L174.369 130.347C175.152 129.173 175.424 127.684 175.113 126.272C174.813 124.886 173.97 123.714 172.808 123.065C163.315 113.712 152.081 113.138 142.554 123.017C141.356 123.676 140.484 124.876 140.169 126.298C139.858 127.699 140.128 129.179 140.906 130.345L145.62 137.42C147.239 139.851 150.376 140.486 152.607 138.725C155.849 136.165 160.558 136.015 163.734 137.965V137.965Z" fill="white"/>
<path d="M110.589 259.931C110.952 258.259 112.652 257.709 114.043 257.773C114.922 257.838 115.793 257.988 116.647 258.222C117.541 258.44 118.426 258.699 119.307 258.972C120.921 259.474 122.519 260.081 124.16 260.474C125.537 260.885 126.987 260.908 128.374 260.541C129.708 260.142 130.759 259.018 131.151 257.57C131.549 256.188 130.975 254.693 129.792 254.032C128.697 253.374 127.321 253.808 126.717 255.002C126.708 255.02 126.7 255.038 126.691 255.056C126.184 256.528 126.582 258.19 127.685 259.204C128.25 259.783 128.87 260.296 129.533 260.735C130.206 261.235 130.955 261.601 131.745 261.815C133.09 262.203 134.51 261.599 135.257 260.32C135.406 260.014 135.495 259.678 135.52 259.332C135.559 258.862 134.886 258.865 134.847 259.332C134.734 260.679 133.288 261.307 132.206 261.161C131.476 261.029 130.779 260.734 130.159 260.294C129.56 259.914 128.993 259.477 128.464 258.99C127.547 258.124 126.687 256.701 127.303 255.35C127.782 254.482 128.816 254.203 129.612 254.725C129.718 254.795 129.817 254.877 129.906 254.971C130.869 255.83 130.697 257.388 130.063 258.408C129.3 259.473 128.123 260.086 126.883 260.061C125.577 260.064 124.278 259.842 123.035 259.403C121.484 258.923 119.949 258.386 118.392 257.933C117.508 257.677 116.616 257.445 115.716 257.265C114.865 257.061 113.99 256.995 113.121 257.069C111.654 257.145 110.384 258.208 109.938 259.734C109.841 260.196 110.49 260.391 110.589 259.931Z" fill="#D1D1D1"/>
<path d="M137.24 240.798C137.443 240.798 137.608 241.432 137.608 242.216V245.052C137.608 245.834 137.443 246.469 137.24 246.469H108.212C108.009 246.469 107.845 245.835 107.845 245.052V242.216C107.845 241.432 108.009 240.798 108.212 240.798H137.24Z" fill="white"/>
<path d="M214.865 240.798C215.068 240.798 215.232 241.432 215.232 242.216V245.052C215.232 245.834 215.068 246.469 214.865 246.469H185.837C185.634 246.469 185.469 245.835 185.469 245.052V242.216C185.469 241.432 185.634 240.798 185.837 240.798H214.865Z" fill="white"/>
<path d="M201.94 256.771L196.178 258.848L193.297 259.886C192.412 260.298 191.454 260.49 190.493 260.448C189.783 260.397 189.159 259.915 188.879 259.201C188.757 258.486 189.038 257.761 189.595 257.359C190.97 256.218 192.708 257.38 193.683 258.56C194.875 260.005 195.549 261.871 196.667 263.384C197.662 264.741 198.923 265.838 200.358 266.593C203.226 268.144 206.648 267.825 209.233 265.766C212.27 263.211 212.58 258.782 212.596 254.918C212.584 254.547 212.298 254.257 211.958 254.27C211.634 254.282 211.375 254.565 211.363 254.918C211.349 258.42 211.167 262.712 208.239 264.903C205.434 267.003 201.749 266.446 199.166 264.209C197.835 262.917 196.728 261.374 195.897 259.655C194.975 258.009 193.83 256.42 192.095 255.782C190.56 255.174 188.845 255.827 187.992 257.345C187.257 258.695 187.664 260.44 188.902 261.241C188.998 261.304 189.097 261.359 189.199 261.407C191.212 262.453 193.514 261.228 195.451 260.529L202.27 258.072C203.019 257.802 202.698 256.503 201.942 256.776L201.94 256.771Z" fill="#C3C5C8"/>
<path d="M298.067 130.188H215.584V131.834H298.067V130.188Z" fill="#D1D1D1"/>
<path d="M314.668 141.684C308.843 141.684 304.104 136.516 304.104 130.164C304.104 123.811 308.843 118.643 314.668 118.643C320.494 118.643 325.233 123.811 325.233 130.164C325.233 136.516 320.494 141.684 314.668 141.684ZM314.668 120.289C309.675 120.289 305.613 124.719 305.613 130.164C305.613 135.609 309.675 140.039 314.668 140.039C319.661 140.039 323.724 135.609 323.724 130.164C323.724 124.719 319.661 120.289 314.668 120.289Z" fill="#D1D1D1"/>
<path d="M314.668 135.924C317.586 135.924 319.951 133.345 319.951 130.164C319.951 126.982 317.586 124.403 314.668 124.403C311.751 124.403 309.386 126.982 309.386 130.164C309.386 133.345 311.751 135.924 314.668 135.924Z" fill="#C3C5C8"/>
<path d="M109.649 191.083H27.1655V192.729H109.649V191.083Z" fill="#D1D1D1"/>
<path d="M0 191.059C0 184.707 4.73909 179.538 10.5644 179.538C16.3897 179.538 21.1288 184.707 21.1288 191.059C21.1288 197.412 16.3897 202.58 10.5644 202.58C4.73909 202.58 0 197.412 0 191.059ZM1.5092 191.059C1.5092 196.504 5.57144 200.934 10.5644 200.934C15.5574 200.934 19.6196 196.504 19.6196 191.059C19.6196 185.614 15.5574 181.184 10.5644 181.184C5.57144 181.184 1.5092 185.614 1.5092 191.059Z" fill="#D1D1D1"/>
<path d="M10.5644 196.82C13.4817 196.82 15.8466 194.241 15.8466 191.059C15.8466 187.878 13.4817 185.299 10.5644 185.299C7.64715 185.299 5.28223 187.878 5.28223 191.059C5.28223 194.241 7.64715 196.82 10.5644 196.82Z" fill="#C3C5C8"/>
</svg>
