<svg width="24" height="16" viewBox="0 0 24 16" fill="none" xmlns="http://www.w3.org/2000/svg">
<path d="M2.89389 0C1.62946 0 0.587891 1.08408 0.587891 2.40012V13.6007C0.587891 14.9167 1.62946 16.0008 2.89389 16.0008H21.3419C22.6063 16.0008 23.6479 14.9167 23.6479 13.6007V2.40012C23.6479 1.08408 22.6063 0 21.3419 0H2.89389ZM3.21217 1.60008H21.0221L14.1762 8.71451C13.0287 9.90689 11.1931 9.90676 10.0461 8.71294L3.21217 1.60008ZM22.1106 2.72983V13.271L17.0392 8.00041L22.1106 2.72983ZM2.12522 2.73139L7.18761 8.00041L2.12522 13.2694V2.73139ZM15.9522 9.13015L21.0236 14.4007H3.21217L8.27456 9.13172L8.95915 9.84425C10.6931 11.649 13.5266 11.6504 15.2616 9.84738L15.9522 9.13015Z" fill="white"/>
</svg>
